<?xml version="1.0" encoding="UTF-8"?>
<svg width="55px" height="56px" viewBox="0 0 55 56" version="1.1" xmlns="http://www.w3.org/2000/svg" xmlns:xlink="http://www.w3.org/1999/xlink">
    <!-- Generator: Sketch 51.2 (57519) - http://www.bohemiancoding.com/sketch -->
    <title>Security Solutions</title>
    <desc>Created with Sketch.</desc>
    <defs></defs>
    <g id="Home" stroke="none" stroke-width="1" fill="none" fill-rule="evenodd">
        <g id="01b_GBM_Home_subnav_desktop" transform="translate(-519.000000, -1155.000000)" fill="#141B4D" fill-rule="nonzero">
            <g id="Solutions" transform="translate(86.000000, 960.000000)">
                <g transform="translate(152.000000, 195.000000)" id="Security-Solutions">
                    <g transform="translate(281.000000, 0.000000)">
                        <path d="M12.7109531,52 C12.5489491,52 12.386297,51.9479053 12.2521577,51.8400385 C11.9521263,51.5979513 11.9145414,51.1701616 12.1679156,50.883947 C12.1970764,50.8508516 15.1163885,47.5388526 17.6747557,43.3381788 C17.8717526,43.0139657 18.3065714,42.9036474 18.6461317,43.0918014 C18.9856921,43.2805681 19.101039,43.6948744 18.9033941,44.0197004 C16.2802253,48.327628 13.3764655,51.6212407 13.2539905,51.7597514 C13.113371,51.9178742 12.912486,52 12.7109531,52 Z" id="Shape"></path>
                        <path d="M46.3425988,48 C46.3317752,48 46.3209516,47.9993791 46.3095267,47.9987582 C34.8744047,47.4250586 34.235813,41.7060676 33.1775065,32.2325725 L33.1570619,32.0500317 C32.2779459,24.1802879 28.8667114,24.3075697 26.8264649,24.3833179 C24.6611457,24.4640333 22.3430937,26.3502882 22.3430937,29.029416 L22.3406884,29.0884003 L21.9402156,33.9449791 C21.8217575,35.8355802 21.2583295,38.0074433 20.2649646,40.3997212 C20.1200487,40.7480388 19.7328048,40.9076068 19.3978748,40.7573522 C19.0635462,40.6064766 18.9096107,40.2016582 19.0545265,39.8539614 C19.988963,37.6038666 20.517515,35.5835001 20.6245482,33.8493624 L20.6251496,33.835082 L21.0238184,28.9989925 C21.0400538,25.8119791 23.6154667,23.1285051 26.77836,23.0099157 C30.0729403,22.8844965 33.5671557,23.8456297 34.4667162,31.8910846 L34.4865594,32.0736254 C35.0000786,36.666948 35.4047606,40.2954122 36.9513312,42.6951407 C38.5436015,45.1662713 41.4491339,46.3794847 46.372063,46.6259769 C46.7358559,46.6439826 47.0166679,46.966223 46.9992299,47.3449641 C46.9835958,47.7137711 46.6919602,48 46.3425988,48 Z" id="Shape"></path>
                        <path d="M48.3831706,42 C45.6105352,42 43.3033433,41.1349588 41.505287,39.4168646 C37.255005,35.3547675 37.4091414,28.0249473 37.4230987,27.5517301 C37.418244,22.9356533 34.6183009,18.8401155 30.4523691,17.3592609 C30.1046519,17.2355934 29.9171394,16.8393528 30.0354725,16.4740291 C30.1531988,16.1087053 30.530651,15.9131089 30.8795819,16.0374073 C35.5898459,17.7113345 38.7544977,22.3431852 38.7544977,27.5637182 L38.7544977,27.5889565 C38.7520704,27.6596236 38.5627374,34.7212873 42.4064391,38.3890367 C44.3246489,40.2188102 46.9631735,40.9198027 50.2485857,40.4711927 C50.6139012,40.4213472 50.9470544,40.6913965 50.9943876,41.0731251 C51.0417209,41.4554847 50.7844222,41.8062964 50.4203204,41.855511 C49.7157833,41.9520473 49.0361266,42 48.3831706,42 Z" id="Shape"></path>
                        <path d="M8.654142,48 C8.47219668,48 8.29144445,47.9206839 8.16199483,47.7645497 C7.92397456,47.4778875 7.95141549,47.0413365 8.22343865,46.7896483 C12.4427804,42.8850463 14.3165189,38.0180335 15.1457124,34.6224287 C16.0506666,30.9176783 15.9450787,28.1028924 15.9438856,28.0747882 L15.9432891,28.0435614 C15.9432891,21.4028651 21.058637,16 27.3455934,16 C27.7070979,16 28,16.3091456 28,16.6907373 C28,17.0723291 27.7070979,17.3814747 27.3455934,17.3814747 C21.7840321,17.3814747 17.2586642,22.1566806 17.2515057,28.0285725 C17.2616469,28.3002459 17.340987,31.1362661 16.4241019,34.9190835 C15.5519575,38.5176627 13.5708414,43.6782076 9.08544189,47.8282525 C8.96136114,47.9444163 8.8074533,48 8.654142,48 Z" id="Shape"></path>
                        <path d="M50.746524,36 C48.6364465,36 46.9094006,35.4635074 45.5907568,34.3946175 C42.945425,32.2486471 42.9974035,28.7792892 43.0004974,28.6324411 C43.0091605,28.2802399 43.3105118,28 43.6786924,28 C43.6836428,28 43.6892119,28 43.6941622,28 C44.0685308,28.0081907 44.3655505,28.3048121 44.3568874,28.6616937 C44.3562687,28.6897762 44.3234727,31.6747111 46.478722,33.4146556 C47.9941413,34.6385842 50.2558227,34.9937107 53.1975554,34.4718444 C53.5644985,34.4063186 53.9209222,34.6379991 53.9883704,34.9896153 C54.0570562,35.3418166 53.8144901,35.6793915 53.4456906,35.7449174 C52.4865645,35.9151675 51.5862235,36 50.746524,36 Z" id="Shape"></path>
                        <path d="M43.326548,23 C43.0426603,23 42.7790503,22.827422 42.6862646,22.5551453 C40.5847586,16.4152172 34.633564,12.2902536 27.8780211,12.2902536 C25.0004327,12.2902536 22.1892076,13.0470314 19.7485111,14.4783792 C18.8132795,15.0275969 17.9345797,15.6735983 17.138834,16.3994753 C16.8690793,16.6449325 16.4426333,16.6350209 16.1857826,16.376737 C15.9289319,16.118453 15.9399924,15.7103294 16.2091327,15.4648722 C17.0743141,14.6766106 18.0273655,13.974638 19.0437078,13.3787776 C21.6963983,11.8226606 24.7515701,11 27.8774066,11 C35.2167012,11 41.6822117,15.4823632 43.9662169,22.1540181 C44.0823527,22.4927607 43.8894074,22.8565737 43.5354696,22.9679331 C43.4666484,22.9895054 43.3959837,23 43.326548,23 Z" id="Shape"></path>
                        <path d="M4.63894541,44 C4.40915621,44 4.18809318,43.8632327 4.07348945,43.6251562 C3.90943741,43.2826046 4.02927684,42.8583726 4.34109207,42.679182 C10.0212485,39.3992985 10.7030534,29.4760679 10.7321407,28.9986485 C10.7356311,25.9663392 11.4529225,22.9783526 12.8066427,20.355079 C12.9805844,20.0188593 13.3691899,19.9004542 13.6763512,20.091042 C13.9829307,20.2816299 14.0905535,20.709661 13.9171935,21.0458807 C12.6687692,23.4646365 12.0084888,26.222778 12.0084888,29.0208099 L12.007907,29.0600672 C11.9846372,29.5140588 11.369733,40.2053394 4.93563527,43.9195859 C4.84081087,43.9740395 4.73900552,44 4.63894541,44 Z" id="Shape"></path>
                        <path d="M40.3555409,52 C40.3449497,52 40.3343586,51.9993962 40.3231791,51.9987924 C37.4212086,51.8544902 35.0688002,50.7471663 33.3295008,48.7088209 C29.5219884,44.2469216 30.0085921,39.9269094 30.032128,39.6177765 C30.0586058,39.2500774 30.3663371,38.9741521 30.724082,39.0019257 C31.0794734,39.0296994 31.3460169,39.3503041 31.3195391,39.718607 C31.3124783,39.8109846 30.8600016,43.8007317 34.3003547,47.8279128 C35.8001768,49.5836913 37.8472075,50.5376563 40.3855491,50.6644491 C40.7415288,50.6819586 41.0163099,50.9953179 40.9992464,51.3636209 C40.9827713,51.7222634 40.6973991,52 40.3555409,52 Z" id="Shape"></path>
                        <path d="M24.6792098,56 C24.6290945,56 24.5783605,55.9938167 24.5276266,55.9826868 C24.1625895,55.8985942 23.9336679,55.5319255 24.0171933,55.1634019 C24.4861732,53.0944756 27.410801,46.6712819 27.5357798,46.3979809 C27.6737515,46.096855 28.0066158,45.9379446 28.3240125,46.0226556 C28.6432653,46.1073666 28.854863,46.4097291 28.8276399,46.7405347 C28.7181288,48.074887 29.7173406,52.3803065 32.7254938,54.628548 C33.0261854,54.8530011 33.0899122,55.2821209 32.866559,55.5857201 C32.6438245,55.8893192 32.2187728,55.9530071 31.9174625,55.7273172 C29.621441,54.0114564 28.3357679,51.316782 27.7863561,49.1773663 C26.8731447,51.267934 25.6134573,54.261261 25.3399888,55.4682377 C25.2682188,55.7848218 24.9885632,56 24.6792098,56 Z" id="Shape"></path>
                        <path d="M17.6394021,56 C17.4767652,56 17.3135454,55.931643 17.1887989,55.7949291 C16.9381399,55.5195847 16.9369741,55.0723895 17.1858842,54.7957674 C17.2103672,54.7682968 19.6691568,52.0065474 22.0620756,47.5397069 C24.2567989,43.4421218 26.8461643,37.0248716 26.7173373,29.7202585 C26.7103421,29.329921 26.9907304,29.0073016 27.3439847,29.0002743 C27.6925755,28.9894138 27.98812,29.3024504 27.9951151,29.6927879 C28.1303543,37.3442967 25.4313985,44.0317805 23.1434067,48.294189 C20.6700439,52.9022154 18.1966811,55.676103 18.092337,55.7917348 C17.9675905,55.9297265 17.8032048,56 17.6394021,56 Z" id="Shape"></path>
                        <path d="M0.664219519,29 C0.297294242,29 0,28.6945674 0,28.3169416 C0,21.9306231 2.14705781,15.6843717 6.04579025,10.7283418 C9.8870014,5.84450501 15.2655447,2.39589304 21.1890265,1.01681847 C21.5456585,0.9341357 21.9022905,1.16428998 21.9834258,1.5320432 C22.0645611,1.89979641 21.8399253,2.26508149 21.4820823,2.34899833 C9.61574311,5.11084968 1.32843904,15.7892678 1.32843904,28.3169416 C1.32843904,28.6945674 1.0311448,29 0.664219519,29 Z" id="Shape"></path>
                        <path d="M51.3335498,16 C51.0928222,16 50.8606052,15.8667434 50.7408493,15.634005 C46.2424039,6.82863174 37.3999193,1.35897141 27.6668641,1.35897141 C27.2984779,1.35897141 27,1.05438495 27,0.679792746 C27,0.303972366 27.2984779,0 27.6668641,0 C37.8990036,0 47.1937643,5.75029745 51.9244267,15.0064095 C52.0946382,15.3392439 51.9675875,15.7494531 51.6411462,15.9226252 C51.5426668,15.9748225 51.4368925,16 51.3335498,16 Z" id="Shape"></path>
                        <path d="M1.66056244,36 C1.41493727,36 1.17954649,35.8579427 1.06576424,35.613357 C0.907432335,35.273037 1.04469346,34.8653942 1.37339772,34.7011018 C4.77422263,33.0013548 4.62672712,27.821203 4.62492106,27.7693212 L4.62431903,27.7433803 C4.62431903,15.2028053 14.4818349,5 26.597537,5 C31.3757893,5 35.9174468,6.56016019 39.7348712,9.5106294 C40.0268521,9.73668586 40.0870544,10.1653284 39.8685202,10.4673547 C39.6511901,10.7699986 39.2369986,10.8317627 38.9450177,10.6057062 C35.3581679,7.83249985 31.0886246,6.36683868 26.597537,6.36683868 C15.2132922,6.36683868 5.95057452,15.9501504 5.94515632,27.7316451 C5.95719677,28.1349644 6.05833654,33.8771692 1.94772715,35.9308243 C1.85501569,35.9783826 1.75688603,36 1.66056244,36 Z" id="Shape"></path>
                        <path d="M54.2141961,31 C54.1902264,31 54.1668876,30.9994041 54.142918,30.9970203 C53.7625579,30.9600727 53.4869073,30.6364827 53.5253848,30.2729653 C54.057132,25.3362807 52.0607147,19.9353666 52.0405298,19.881137 C51.9118508,19.5378813 52.0998231,19.1612535 52.4593674,19.0384919 C52.8189117,18.9163262 53.2150413,19.0945093 53.3430895,19.437765 C53.4307679,19.6695818 55.4644011,25.1771674 54.9017458,30.4082415 C54.8651605,30.7473257 54.5649095,31 54.2141961,31 Z" id="Shape"></path>
                        <path d="M49.2995589,29 C48.923029,29 48.6128704,28.7195064 48.6007449,28.3642936 C48.4692785,24.4130697 47.5694358,21.5761111 47.5171045,21.4142195 C46.4685644,18.5410873 45.0064796,16.0753529 43.1704176,14.0858052 C42.9176958,13.8118347 42.9496052,13.3973209 43.2425327,13.160117 C43.5341838,12.9229131 43.9764469,12.9525636 44.2298069,13.2271271 C46.1845715,15.3471369 47.7372788,17.9623098 48.8451702,20.9997057 L48.8502757,21.01631 C48.8911197,21.139656 49.8579719,24.0833563 49.9996493,28.3233759 C50.0117748,28.6845188 49.7079981,28.9881398 49.3218954,28.999407 C49.3148754,29 49.3072171,29 49.2995589,29 Z" id="Shape"></path>
                    </g>
                </g>
            </g>
        </g>
    </g>
</svg>