<?xml version="1.0" encoding="UTF-8"?>
<svg width="55px" height="56px" viewBox="0 0 55 56" version="1.1" xmlns="http://www.w3.org/2000/svg" xmlns:xlink="http://www.w3.org/1999/xlink">
    <!-- Generator: Sketch 51.2 (57519) - http://www.bohemiancoding.com/sketch -->
    <title>IOT</title>
    <desc>Created with Sketch.</desc>
    <defs></defs>
    <g id="Home" stroke="none" stroke-width="1" fill="none" fill-rule="evenodd">
        <g id="01b_GBM_Home_subnav_desktop" transform="translate(-207.000000, -1225.000000)" fill="#141B4D" fill-rule="nonzero">
            <g id="Solutions" transform="translate(135.000000, 1046.000000)">
                <g transform="translate(20.000000, 173.000000)" id="Digital-Business-Solutions">
                    <g transform="translate(0.000000, 6.000000)">
                        <g id="IOT" transform="translate(52.000000, 0.000000)">
                            <path d="M32.2424242,0 C30.3780536,0 28.8484848,1.57736775 28.8484848,3.5 C28.8484848,5.12154825 29.9346795,6.4720985 31.3939394,6.86328125 L31.3939394,15.75 L22.9090909,15.75 L22.9090909,7.875 L22.9090909,7 L22.0606061,7 L11.7462121,7 C11.3668834,5.49513825 10.0572589,4.375 8.48484848,4.375 C6.62047782,4.375 5.09090909,5.95236775 5.09090909,7.875 C5.09090909,9.79763225 6.62047782,11.375 8.48484848,11.375 C10.0572589,11.375 11.3668834,10.2548617 11.7462121,8.75 L21.2121212,8.75 L21.2121212,15.75 L16.1212121,15.75 L15.2727273,15.75 L15.2727273,16.625 L15.2727273,21.875 L6.65530303,21.875 C6.2759743,20.3701383 4.96634982,19.25 3.39393939,19.25 C1.52956873,19.25 0,20.8273678 0,22.75 C0,24.6726322 1.52956873,26.25 3.39393939,26.25 C4.96634982,26.25 6.2759743,25.1298617 6.65530303,23.625 L15.2727273,23.625 L15.2727273,32.375 L7.63636364,32.375 L6.78787879,32.375 L6.78787879,33.25 L6.78787879,43.8867188 C5.32861891,44.2779015 4.24242424,45.6284517 4.24242424,47.25 C4.24242424,49.1726322 5.77199297,50.75 7.63636364,50.75 C9.5007343,50.75 11.030303,49.1726322 11.030303,47.25 C11.030303,45.6284517 9.94410836,44.2779015 8.48484848,43.8867188 L8.48484848,34.125 L15.2727273,34.125 L15.2727273,39.375 L15.2727273,40.25 L16.1212121,40.25 L21.2121212,40.25 L21.2121212,49.1367188 C19.7528613,49.5279015 18.6666667,50.8784517 18.6666667,52.5 C18.6666667,54.4226322 20.1962354,56 22.0606061,56 C23.9249767,56 25.4545455,54.4226322 25.4545455,52.5 C25.4545455,50.8784517 24.3683508,49.5279015 22.9090909,49.1367188 L22.9090909,40.25 L31.3939394,40.25 L31.3939394,48.125 L31.3939394,49 L32.2424242,49 L42.5568182,49 C42.9361469,50.5048618 44.2457714,51.625 45.8181818,51.625 C47.6825525,51.625 49.2121212,50.0476322 49.2121212,48.125 C49.2121212,46.2023678 47.6825525,44.625 45.8181818,44.625 C44.2457714,44.625 42.9361469,45.7451382 42.5568182,47.25 L33.0909091,47.25 L33.0909091,40.25 L38.1818182,40.25 L39.030303,40.25 L39.030303,39.375 L39.030303,34.125 L47.6477273,34.125 C48.027056,35.6298618 49.3366805,36.75 50.9090909,36.75 C52.7734616,36.75 54.3030303,35.1726322 54.3030303,33.25 C54.3030303,31.3273678 52.7734616,29.75 50.9090909,29.75 C49.3366805,29.75 48.027056,30.8701383 47.6477273,32.375 L39.030303,32.375 L39.030303,23.625 L46.6666667,23.625 L47.5151515,23.625 L47.5151515,22.75 L47.5151515,12.1132812 C48.9744114,11.7220985 50.0606061,10.3715483 50.0606061,8.75 C50.0606061,6.82736775 48.5310373,5.25 46.6666667,5.25 C44.802296,5.25 43.2727273,6.82736775 43.2727273,8.75 C43.2727273,10.3715483 44.3589219,11.7220985 45.8181818,12.1132812 L45.8181818,21.875 L39.030303,21.875 L39.030303,16.625 L39.030303,15.75 L38.1818182,15.75 L33.0909091,15.75 L33.0909091,6.86328125 C34.550169,6.4720985 35.6363636,5.12154825 35.6363636,3.5 C35.6363636,1.57736775 34.1067949,0 32.2424242,0 Z M32.2424242,1.75 C33.1896846,1.75 33.9393939,2.52313775 33.9393939,3.5 C33.9393939,4.47686225 33.1896846,5.25 32.2424242,5.25 C31.2951639,5.25 30.5454545,4.47686225 30.5454545,3.5 C30.5454545,2.52313775 31.2951639,1.75 32.2424242,1.75 Z M8.48484848,6.125 C9.43210885,6.125 10.1818182,6.89813775 10.1818182,7.875 C10.1818182,8.85186225 9.43210885,9.625 8.48484848,9.625 C7.53758812,9.625 6.78787879,8.85186225 6.78787879,7.875 C6.78787879,6.89813775 7.53758812,6.125 8.48484848,6.125 Z M46.6666667,7 C47.613927,7 48.3636364,7.77313775 48.3636364,8.75 C48.3636364,9.72686225 47.613927,10.5 46.6666667,10.5 C45.7194063,10.5 44.969697,9.72686225 44.969697,8.75 C44.969697,7.77313775 45.7194063,7 46.6666667,7 Z M16.969697,17.5 L37.3333333,17.5 L37.3333333,38.5 L16.969697,38.5 L16.969697,17.5 Z M3.39393939,21 C4.34119976,21 5.09090909,21.7731378 5.09090909,22.75 C5.09090909,23.7268622 4.34119976,24.5 3.39393939,24.5 C2.44667903,24.5 1.6969697,23.7268622 1.6969697,22.75 C1.6969697,21.7731378 2.44667903,21 3.39393939,21 Z M50.9090909,31.5 C51.8563513,31.5 52.6060606,32.2731377 52.6060606,33.25 C52.6060606,34.2268622 51.8563513,35 50.9090909,35 C49.9618305,35 49.2121212,34.2268622 49.2121212,33.25 C49.2121212,32.2731377 49.9618305,31.5 50.9090909,31.5 Z M7.63636364,45.5 C8.583624,45.5 9.33333333,46.2731377 9.33333333,47.25 C9.33333333,48.2268623 8.583624,49 7.63636364,49 C6.68910327,49 5.93939394,48.2268623 5.93939394,47.25 C5.93939394,46.2731377 6.68910327,45.5 7.63636364,45.5 Z M45.8181818,46.375 C46.7654422,46.375 47.5151515,47.1481377 47.5151515,48.125 C47.5151515,49.1018623 46.7654422,49.875 45.8181818,49.875 C44.8709215,49.875 44.1212121,49.1018623 44.1212121,48.125 C44.1212121,47.1481377 44.8709215,46.375 45.8181818,46.375 Z M22.0606061,50.75 C23.0078664,50.75 23.7575758,51.5231377 23.7575758,52.5 C23.7575758,53.4768623 23.0078664,54.25 22.0606061,54.25 C21.1133457,54.25 20.3636364,53.4768623 20.3636364,52.5 C20.3636364,51.5231377 21.1133457,50.75 22.0606061,50.75 Z" id="Shape"></path>
                        </g>
                    </g>
                </g>
            </g>
        </g>
    </g>
</svg>