<?xml version="1.0" encoding="UTF-8"?>
<svg width="60px" height="56px" viewBox="0 0 60 56" version="1.1" xmlns="http://www.w3.org/2000/svg" xmlns:xlink="http://www.w3.org/1999/xlink">
    <!-- Generator: Sketch 51.2 (57519) - http://www.bohemiancoding.com/sketch -->
    <title>Managed Solutions</title>
    <desc>Created with Sketch.</desc>
    <defs></defs>
    <g id="Home" stroke="none" stroke-width="1" fill="none" fill-rule="evenodd">
        <g id="01b_GBM_Home_subnav_desktop" transform="translate(-1255.000000, -1303.000000)" fill="#141B4D" fill-rule="nonzero">
            <g id="Solutions" transform="translate(86.000000, 960.000000)">
                <g transform="translate(152.000000, 195.000000)" id="Managed-Solutions">
                    <g transform="translate(1017.000000, 148.000000)">
                        <path d="M16.3636364,0 C13.3673264,0 10.9090909,2.50125457 10.9090909,5.55 C10.9090909,8.59874612 13.3673264,11.1 16.3636364,11.1 C16.9740777,11.1 17.5613605,10.9874946 18.1107955,10.7964844 L23.2670455,19.9453125 C22.3698614,20.7476566 21.6078614,21.7120939 21.0298295,22.7853516 L10.8877841,19.1431641 C10.897862,19.0063219 10.9090909,18.8705716 10.9090909,18.73125 C10.9090909,15.6825046 8.45085545,13.18125 5.45454545,13.18125 C2.4582358,13.18125 0,15.6825046 0,18.73125 C0,21.7799961 2.4582358,24.28125 5.45454545,24.28125 C7.36100932,24.28125 9.03847568,23.2662126 10.0142045,21.7447266 L20.0710227,25.3652344 C19.8930552,26.1320279 19.7727273,26.9291231 19.7727273,27.75 C19.7727273,29.9437929 20.4373548,31.987853 21.5838068,33.6685547 L13.0184659,42.3837891 C12.215923,41.9091628 11.301615,41.625 10.3125,41.625 C7.31619068,41.625 4.85795455,44.1262546 4.85795455,47.175 C4.85795455,50.2237461 7.31619068,52.725 10.3125,52.725 C13.30881,52.725 15.7670455,50.2237461 15.7670455,47.175 C15.7670455,46.1282429 15.4589959,45.1516386 14.9573864,44.3132812 L23.4161932,35.7064453 C25.1961464,37.2337283 27.4978275,38.15625 30,38.15625 C31.600978,38.15625 33.1019168,37.7658998 34.453125,37.0939453 L39.5880682,46.2644531 C38.7209434,47.2479721 38.1818182,48.5346432 38.1818182,49.95 C38.1818182,52.9987454 40.6400536,55.5 43.6363636,55.5 C46.6326736,55.5 49.0909091,52.9987454 49.0909091,49.95 C49.0909091,46.9012539 46.6326736,44.4 43.6363636,44.4 C43.0259223,44.4 42.4386395,44.5125054 41.8892045,44.7035156 L36.7329545,35.5546875 C37.6301386,34.7523434 38.392138,33.787906 38.9701705,32.7146484 L49.1122159,36.3568359 C49.102138,36.4936781 49.0909091,36.6294283 49.0909091,36.76875 C49.0909091,39.8174954 51.5491445,42.31875 54.5454545,42.31875 C57.5417645,42.31875 60,39.8174954 60,36.76875 C60,33.7200039 57.5417645,31.21875 54.5454545,31.21875 C52.6389907,31.21875 50.9615243,32.2337874 49.9857955,33.7552734 L39.9289773,30.1347656 C40.1069448,29.3679721 40.2272727,28.5708769 40.2272727,27.75 C40.2272727,25.5562071 39.5626459,23.512147 38.4161932,21.8314453 L46.9815341,13.1162109 C47.784077,13.5908372 48.698385,13.875 49.6875,13.875 C52.68381,13.875 55.1420455,11.3737454 55.1420455,8.325 C55.1420455,5.27625388 52.68381,2.775 49.6875,2.775 C46.69119,2.775 44.2329545,5.27625388 44.2329545,8.325 C44.2329545,9.37175706 44.5410041,10.3483614 45.0426136,11.1867187 L36.5838068,19.7935547 C34.8038536,18.2662717 32.5021725,17.34375 30,17.34375 C28.399022,17.34375 26.8980832,17.7341002 25.546875,18.4060547 L20.4119318,9.23554687 C21.2790566,8.25202791 21.8181818,6.96535684 21.8181818,5.55 C21.8181818,2.50125457 19.3599464,0 16.3636364,0 Z M16.3636364,2.775 C17.8860198,2.775 19.0909091,4.00097419 19.0909091,5.55 C19.0909091,7.09902442 17.8860198,8.325 16.3636364,8.325 C14.841253,8.325 13.6363636,7.09902442 13.6363636,5.55 C13.6363636,4.00097419 14.841253,2.775 16.3636364,2.775 Z M49.6875,5.55 C51.2098834,5.55 52.4147727,6.77597557 52.4147727,8.325 C52.4147727,9.87402581 51.2098834,11.1 49.6875,11.1 C48.1651166,11.1 46.9602273,9.87402581 46.9602273,8.325 C46.9602273,6.77597557 48.1651166,5.55 49.6875,5.55 Z M5.45454545,15.95625 C6.97692886,15.95625 8.18181818,17.1822242 8.18181818,18.73125 C8.18181818,20.2802744 6.97692886,21.50625 5.45454545,21.50625 C3.93216205,21.50625 2.72727273,20.2802744 2.72727273,18.73125 C2.72727273,17.1822242 3.93216205,15.95625 5.45454545,15.95625 Z M30,20.11875 C34.1582864,20.11875 37.5,23.5189429 37.5,27.75 C37.5,31.9810564 34.1582864,35.38125 30,35.38125 C25.8417136,35.38125 22.5,31.9810564 22.5,27.75 C22.5,23.5189429 25.8417136,20.11875 30,20.11875 Z M54.5454545,33.99375 C56.067838,33.99375 57.2727273,35.2197256 57.2727273,36.76875 C57.2727273,38.3177758 56.067838,39.54375 54.5454545,39.54375 C53.0230711,39.54375 51.8181818,38.3177758 51.8181818,36.76875 C51.8181818,35.2197256 53.0230711,33.99375 54.5454545,33.99375 Z M10.3125,44.4 C11.8348834,44.4 13.0397727,45.6259742 13.0397727,47.175 C13.0397727,48.7240244 11.8348834,49.95 10.3125,49.95 C8.79011659,49.95 7.58522727,48.7240244 7.58522727,47.175 C7.58522727,45.6259742 8.79011659,44.4 10.3125,44.4 Z M43.6363636,47.175 C45.158747,47.175 46.3636364,48.4009756 46.3636364,49.95 C46.3636364,51.4990258 45.158747,52.725 43.6363636,52.725 C42.1139802,52.725 40.9090909,51.4990258 40.9090909,49.95 C40.9090909,48.4009756 42.1139802,47.175 43.6363636,47.175 Z" id="Shape"></path>
                    </g>
                </g>
            </g>
        </g>
    </g>
</svg>