<?xml version="1.0" encoding="utf-8"?>
<!-- Generator: Adobe Illustrator 22.1.0, SVG Export Plug-In . SVG Version: 6.00 Build 0)  -->
<svg version="1.1" id="Layer_1" xmlns="http://www.w3.org/2000/svg" xmlns:xlink="http://www.w3.org/1999/xlink" x="0px" y="0px"
	 viewBox="0 0 200 170" style="enable-background:new 0 0 200 170;" xml:space="preserve">
<style type="text/css">
	.st0{fill:#95CBEE;}
	.st1{clip-path:url(#SVGID_2_);fill:#466AB2;}
	.st2{clip-path:url(#SVGID_2_);fill:#486AB2;}
	.st3{clip-path:url(#SVGID_2_);fill:#496AB2;}
	.st4{clip-path:url(#SVGID_2_);fill:#4B6AB2;}
	.st5{clip-path:url(#SVGID_2_);fill:#4C6AB2;}
	.st6{clip-path:url(#SVGID_2_);fill:#4E6BB3;}
	.st7{clip-path:url(#SVGID_2_);fill:#506BB3;}
	.st8{clip-path:url(#SVGID_2_);fill:#516BB3;}
	.st9{clip-path:url(#SVGID_2_);fill:#536BB3;}
	.st10{clip-path:url(#SVGID_2_);fill:#546BB3;}
	.st11{clip-path:url(#SVGID_2_);fill:#556BB3;}
	.st12{clip-path:url(#SVGID_2_);fill:#576CB3;}
	.st13{clip-path:url(#SVGID_2_);fill:#586CB3;}
	.st14{clip-path:url(#SVGID_2_);fill:#5A6CB3;}
	.st15{clip-path:url(#SVGID_2_);fill:#5B6CB3;}
	.st16{clip-path:url(#SVGID_2_);fill:#5C6CB3;}
	.st17{clip-path:url(#SVGID_2_);fill:#5E6CB3;}
	.st18{clip-path:url(#SVGID_2_);fill:#5F6DB3;}
	.st19{clip-path:url(#SVGID_2_);fill:#606DB3;}
	.st20{clip-path:url(#SVGID_2_);fill:#616DB3;}
	.st21{clip-path:url(#SVGID_2_);fill:#636DB3;}
	.st22{clip-path:url(#SVGID_2_);fill:#646DB3;}
	.st23{clip-path:url(#SVGID_2_);fill:#656EB3;}
	.st24{clip-path:url(#SVGID_2_);fill:#666EB3;}
	.st25{clip-path:url(#SVGID_2_);fill:#676EB3;}
	.st26{clip-path:url(#SVGID_2_);fill:#696EB3;}
	.st27{clip-path:url(#SVGID_2_);fill:#6A6EB3;}
	.st28{clip-path:url(#SVGID_2_);fill:#6B6EB3;}
	.st29{clip-path:url(#SVGID_2_);fill:#6C6FB3;}
	.st30{clip-path:url(#SVGID_2_);fill:#6D6FB3;}
	.st31{clip-path:url(#SVGID_2_);fill:#6E6FB3;}
	.st32{clip-path:url(#SVGID_2_);fill:#6F6FB3;}
	.st33{clip-path:url(#SVGID_2_);fill:#706FB4;}
	.st34{clip-path:url(#SVGID_2_);fill:#716FB4;}
	.st35{clip-path:url(#SVGID_2_);fill:#7270B4;}
	.st36{clip-path:url(#SVGID_2_);fill:#7370B4;}
	.st37{clip-path:url(#SVGID_2_);fill:#7470B4;}
	.st38{clip-path:url(#SVGID_2_);fill:#7570B4;}
	.st39{clip-path:url(#SVGID_2_);fill:#7670B4;}
	.st40{clip-path:url(#SVGID_2_);fill:#7770B4;}
	.st41{clip-path:url(#SVGID_2_);fill:#7871B4;}
	.st42{clip-path:url(#SVGID_2_);fill:#7971B4;}
	.st43{clip-path:url(#SVGID_2_);fill:#7A71B4;}
	.st44{clip-path:url(#SVGID_2_);fill:#7B71B4;}
	.st45{clip-path:url(#SVGID_2_);fill:#7C71B4;}
	.st46{clip-path:url(#SVGID_2_);fill:#7D71B4;}
	.st47{clip-path:url(#SVGID_2_);fill:#7E72B4;}
	.st48{clip-path:url(#SVGID_2_);fill:#7F72B4;}
	.st49{clip-path:url(#SVGID_2_);fill:#8072B4;}
	.st50{clip-path:url(#SVGID_2_);fill:#8172B4;}
	.st51{clip-path:url(#SVGID_2_);fill:#8272B4;}
	.st52{clip-path:url(#SVGID_2_);fill:#8372B4;}
	.st53{clip-path:url(#SVGID_2_);fill:#8373B4;}
	.st54{clip-path:url(#SVGID_2_);fill:#8473B4;}
	.st55{clip-path:url(#SVGID_2_);fill:#8573B4;}
	.st56{clip-path:url(#SVGID_2_);fill:#8673B4;}
	.st57{clip-path:url(#SVGID_2_);fill:#8773B4;}
	.st58{clip-path:url(#SVGID_2_);fill:#8873B4;}
	.st59{clip-path:url(#SVGID_2_);fill:#8874B4;}
	.st60{clip-path:url(#SVGID_2_);fill:#8974B4;}
	.st61{clip-path:url(#SVGID_2_);fill:#8A74B5;}
	.st62{clip-path:url(#SVGID_2_);fill:#8B74B5;}
	.st63{clip-path:url(#SVGID_2_);fill:#8C74B5;}
	.st64{clip-path:url(#SVGID_2_);fill:#8D75B5;}
	.st65{clip-path:url(#SVGID_2_);fill:#8E75B5;}
	.st66{clip-path:url(#SVGID_2_);fill:#8F75B5;}
	.st67{clip-path:url(#SVGID_2_);fill:#9075B5;}
	.st68{clip-path:url(#SVGID_2_);fill:#9175B5;}
	.st69{clip-path:url(#SVGID_2_);fill:#9275B5;}
	.st70{clip-path:url(#SVGID_2_);fill:#9276B5;}
	.st71{clip-path:url(#SVGID_2_);fill:#9376B5;}
	.st72{clip-path:url(#SVGID_2_);fill:#9476B5;}
	.st73{clip-path:url(#SVGID_2_);fill:#9576B5;}
	.st74{clip-path:url(#SVGID_2_);fill:#9676B5;}
	.st75{clip-path:url(#SVGID_2_);fill:#9776B5;}
	.st76{clip-path:url(#SVGID_2_);fill:#9777B5;}
	.st77{clip-path:url(#SVGID_2_);fill:#9877B5;}
	.st78{clip-path:url(#SVGID_2_);fill:#9977B5;}
	.st79{clip-path:url(#SVGID_2_);fill:#9A77B5;}
	.st80{clip-path:url(#SVGID_2_);fill:#9B77B5;}
	.st81{clip-path:url(#SVGID_2_);fill:#9C78B5;}
	.st82{clip-path:url(#SVGID_2_);fill:#9D78B5;}
	.st83{clip-path:url(#SVGID_2_);fill:#9E78B5;}
	.st84{clip-path:url(#SVGID_2_);fill:#9F78B5;}
	.st85{clip-path:url(#SVGID_2_);fill:#A078B5;}
	.st86{clip-path:url(#SVGID_2_);fill:#A079B5;}
	.st87{clip-path:url(#SVGID_2_);fill:#A179B5;}
	.st88{clip-path:url(#SVGID_2_);fill:#A179B6;}
	.st89{clip-path:url(#SVGID_2_);fill:#A279B6;}
	.st90{clip-path:url(#SVGID_2_);fill:#A379B6;}
	.st91{clip-path:url(#SVGID_2_);fill:#A479B6;}
	.st92{clip-path:url(#SVGID_2_);fill:#A47AB6;}
	.st93{clip-path:url(#SVGID_2_);fill:#A57AB6;}
	.st94{fill:url(#SVGID_3_);}
	.st95{fill:none;stroke:#95CBEE;stroke-width:4;stroke-linecap:round;stroke-linejoin:round;stroke-miterlimit:10;}
	.st96{fill-rule:evenodd;clip-rule:evenodd;fill:#95CBEE;}
	.st97{fill:url(#SVGID_4_);}
	.st98{fill:url(#SVGID_5_);}
	.st99{fill:url(#SVGID_6_);}
	.st100{fill:url(#SVGID_7_);}
	.st101{fill:url(#SVGID_8_);}
	.st102{fill:url(#SVGID_9_);}
	.st103{fill:url(#SVGID_10_);}
	.st104{fill:url(#SVGID_11_);}
	.st105{fill:url(#SVGID_12_);}
	.st106{fill:url(#SVGID_13_);}
	.st107{fill:url(#SVGID_14_);}
	.st108{fill:url(#SVGID_15_);}
	.st109{fill:url(#SVGID_16_);}
	.st110{fill:url(#SVGID_17_);}
	.st111{fill:url(#SVGID_18_);}
	.st112{fill:url(#SVGID_19_);}
	.st113{fill:url(#SVGID_20_);}
	.st114{fill:url(#SVGID_21_);}
	.st115{fill:url(#SVGID_22_);}
	.st116{fill:url(#SVGID_23_);}
	.st117{fill:url(#SVGID_24_);}
</style>
<g>
	<path d="M100.8,82.1c0-2.6,2.1-4.8,4.8-4.8c1.5,0,2.7-1.2,2.7-2.7c0-1.5-1.2-2.7-2.7-2.7c0,0,0,0,0,0c-5.6,0-10.2,4.6-10.2,10.2
		c0,22.9-10.6,42.6-27.1,50.2c-1.3,0.6-1.9,2.2-1.3,3.6c0.5,1,1.4,1.6,2.4,1.6c0.4,0,0.8-0.1,1.1-0.2
		C88.9,128.7,100.8,107.1,100.8,82.1z"/>
	<linearGradient id="SVGID_2_" gradientUnits="userSpaceOnUse" x1="29.6658" y1="104.6769" x2="188.0109" y2="104.6769">
		<stop  offset="0.3102" style="stop-color:#466AB2"/>
		<stop  offset="0.3856" style="stop-color:#5567B0"/>
		<stop  offset="0.647" style="stop-color:#785EA8"/>
		<stop  offset="0.8611" style="stop-color:#8A57A4"/>
		<stop  offset="1" style="stop-color:#9055A2"/>
	</linearGradient>
	<path style="fill:url(#SVGID_2_);" d="M100.8,82.1c0-2.6,2.1-4.8,4.8-4.8c1.5,0,2.7-1.2,2.7-2.7c0-1.5-1.2-2.7-2.7-2.7c0,0,0,0,0,0
		c-5.6,0-10.2,4.6-10.2,10.2c0,22.9-10.6,42.6-27.1,50.2c-1.3,0.6-1.9,2.2-1.3,3.6c0.5,1,1.4,1.6,2.4,1.6c0.4,0,0.8-0.1,1.1-0.2
		C88.9,128.7,100.8,107.1,100.8,82.1z"/>
	<path d="M107.2,119.8c5.6-11.4,8.6-24.4,8.5-37.7c0-1.5-1.2-2.7-2.7-2.7c0,0,0,0,0,0c-1.5,0-2.7,1.2-2.7,2.7
		c0,24.8-11,47.8-28.8,60.1c-1.2,0.8-1.5,2.5-0.7,3.7c0.5,0.8,1.4,1.2,2.2,1.2c0.5,0,1.1-0.2,1.5-0.5
		C93.9,140.2,101.7,130.9,107.2,119.8z"/>
	<linearGradient id="SVGID_3_" gradientUnits="userSpaceOnUse" x1="29.6658" y1="113.2813" x2="188.0109" y2="113.2813">
		<stop  offset="0.3102" style="stop-color:#466AB2"/>
		<stop  offset="0.3856" style="stop-color:#5567B0"/>
		<stop  offset="0.647" style="stop-color:#785EA8"/>
		<stop  offset="0.8611" style="stop-color:#8A57A4"/>
		<stop  offset="1" style="stop-color:#9055A2"/>
	</linearGradient>
	<path class="st94" d="M107.2,119.8c5.6-11.4,8.6-24.4,8.5-37.7c0-1.5-1.2-2.7-2.7-2.7c0,0,0,0,0,0c-1.5,0-2.7,1.2-2.7,2.7
		c0,24.8-11,47.8-28.8,60.1c-1.2,0.8-1.5,2.5-0.7,3.7c0.5,0.8,1.4,1.2,2.2,1.2c0.5,0,1.1-0.2,1.5-0.5
		C93.9,140.2,101.7,130.9,107.2,119.8z"/>
	<path d="M141.5,132.3c-5-2.3-9.5-5.7-13.4-10.2c-1-1.1-2.7-1.2-3.8-0.3c-1.1,1-1.2,2.7-0.3,3.8c4.4,5.1,9.5,9,15.2,11.6
		c0.4,0.2,0.7,0.2,1.1,0.2c1,0,2-0.6,2.4-1.6C143.4,134.5,142.9,132.9,141.5,132.3z"/>
	<linearGradient id="SVGID_4_" gradientUnits="userSpaceOnUse" x1="29.6658" y1="129.282" x2="188.0109" y2="129.282">
		<stop  offset="0.3102" style="stop-color:#466AB2"/>
		<stop  offset="0.3856" style="stop-color:#5567B0"/>
		<stop  offset="0.647" style="stop-color:#785EA8"/>
		<stop  offset="0.8611" style="stop-color:#8A57A4"/>
		<stop  offset="1" style="stop-color:#9055A2"/>
	</linearGradient>
	<path class="st97" d="M141.5,132.3c-5-2.3-9.5-5.7-13.4-10.2c-1-1.1-2.7-1.2-3.8-0.3c-1.1,1-1.2,2.7-0.3,3.8
		c4.4,5.1,9.5,9,15.2,11.6c0.4,0.2,0.7,0.2,1.1,0.2c1,0,2-0.6,2.4-1.6C143.4,134.5,142.9,132.9,141.5,132.3z"/>
	<path d="M128.3,142.2c-2.8-1.9-5.4-4.1-7.9-6.6c-1.1-1-2.8-1-3.8,0c-1,1.1-1,2.8,0,3.8c2.7,2.7,5.6,5.1,8.7,7.2
		c0.5,0.3,1,0.5,1.5,0.5c0.9,0,1.7-0.4,2.2-1.2C129.8,144.7,129.5,143.1,128.3,142.2z"/>
	<linearGradient id="SVGID_5_" gradientUnits="userSpaceOnUse" x1="29.6658" y1="140.9743" x2="188.0109" y2="140.9743">
		<stop  offset="0.3102" style="stop-color:#466AB2"/>
		<stop  offset="0.3856" style="stop-color:#5567B0"/>
		<stop  offset="0.647" style="stop-color:#785EA8"/>
		<stop  offset="0.8611" style="stop-color:#8A57A4"/>
		<stop  offset="1" style="stop-color:#9055A2"/>
	</linearGradient>
	<path class="st98" d="M128.3,142.2c-2.8-1.9-5.4-4.1-7.9-6.6c-1.1-1-2.8-1-3.8,0c-1,1.1-1,2.8,0,3.8c2.7,2.7,5.6,5.1,8.7,7.2
		c0.5,0.3,1,0.5,1.5,0.5c0.9,0,1.7-0.4,2.2-1.2C129.8,144.7,129.5,143.1,128.3,142.2z"/>
	<path d="M74.7,82.2L74.7,82.2c0-8.3,3.2-16.1,9-21.9c1-1,1-2.7,0-3.8c-1-1-2.7-1-3.8,0c-6.8,6.8-10.6,15.9-10.6,25.6v0.1
		c0,10.9-5.4,22-15.9,22c-1.5,0-2.7,1.2-2.7,2.7c0,1.5,1.2,2.7,2.7,2.7c0,0,0,0,0,0C65.8,109.6,74.8,98.1,74.7,82.2z"/>
	<linearGradient id="SVGID_6_" gradientUnits="userSpaceOnUse" x1="29.6658" y1="82.6492" x2="188.0109" y2="82.6492">
		<stop  offset="0.3102" style="stop-color:#466AB2"/>
		<stop  offset="0.3856" style="stop-color:#5567B0"/>
		<stop  offset="0.647" style="stop-color:#785EA8"/>
		<stop  offset="0.8611" style="stop-color:#8A57A4"/>
		<stop  offset="1" style="stop-color:#9055A2"/>
	</linearGradient>
	<path class="st99" d="M74.7,82.2L74.7,82.2c0-8.3,3.2-16.1,9-21.9c1-1,1-2.7,0-3.8c-1-1-2.7-1-3.8,0c-6.8,6.8-10.6,15.9-10.6,25.6
		v0.1c0,10.9-5.4,22-15.9,22c-1.5,0-2.7,1.2-2.7,2.7c0,1.5,1.2,2.7,2.7,2.7c0,0,0,0,0,0C65.8,109.6,74.8,98.1,74.7,82.2z"/>
	<path d="M91.1,54.6c0.4,0,0.8-0.1,1.2-0.3c4.2-2,8.6-3,13.3-3c2.7,0,5.5,0.4,8.1,1.1c1.4,0.4,2.9-0.5,3.3-1.9
		c0.4-1.4-0.5-2.9-1.9-3.3c-3.1-0.8-6.3-1.3-9.5-1.3c0,0,0,0,0,0c-5.5,0-10.7,1.2-15.6,3.5c-1.3,0.6-1.9,2.2-1.3,3.6
		C89.1,54,90.1,54.6,91.1,54.6z"/>
	<linearGradient id="SVGID_7_" gradientUnits="userSpaceOnUse" x1="29.6658" y1="50.2289" x2="188.0109" y2="50.2289">
		<stop  offset="0.3102" style="stop-color:#466AB2"/>
		<stop  offset="0.3856" style="stop-color:#5567B0"/>
		<stop  offset="0.647" style="stop-color:#785EA8"/>
		<stop  offset="0.8611" style="stop-color:#8A57A4"/>
		<stop  offset="1" style="stop-color:#9055A2"/>
	</linearGradient>
	<path class="st100" d="M91.1,54.6c0.4,0,0.8-0.1,1.2-0.3c4.2-2,8.6-3,13.3-3c2.7,0,5.5,0.4,8.1,1.1c1.4,0.4,2.9-0.5,3.3-1.9
		c0.4-1.4-0.5-2.9-1.9-3.3c-3.1-0.8-6.3-1.3-9.5-1.3c0,0,0,0,0,0c-5.5,0-10.7,1.2-15.6,3.5c-1.3,0.6-1.9,2.2-1.3,3.6
		C89.1,54,90.1,54.6,91.1,54.6z"/>
	<path d="M121.7,55.9c0.4,0.3,0.9,0.4,1.4,0.4c0.9,0,1.8-0.5,2.3-1.3c0.8-1.3,0.4-2.9-0.9-3.7l-0.2-0.1c-1.3-0.8-2.9-0.4-3.7,0.9
		c-0.8,1.3-0.4,2.9,0.9,3.7L121.7,55.9z"/>
	<linearGradient id="SVGID_8_" gradientUnits="userSpaceOnUse" x1="29.6658" y1="53.5261" x2="188.0109" y2="53.5261">
		<stop  offset="0.3102" style="stop-color:#466AB2"/>
		<stop  offset="0.3856" style="stop-color:#5567B0"/>
		<stop  offset="0.647" style="stop-color:#785EA8"/>
		<stop  offset="0.8611" style="stop-color:#8A57A4"/>
		<stop  offset="1" style="stop-color:#9055A2"/>
	</linearGradient>
	<path class="st101" d="M121.7,55.9c0.4,0.3,0.9,0.4,1.4,0.4c0.9,0,1.8-0.5,2.3-1.3c0.8-1.3,0.4-2.9-0.9-3.7l-0.2-0.1
		c-1.3-0.8-2.9-0.4-3.7,0.9c-0.8,1.3-0.4,2.9,0.9,3.7L121.7,55.9z"/>
	<path d="M157.6,104.2c-10.4,0-15.9-11-15.9-21.9c0-0.1,0-0.1,0-0.2c0-6.4-1.7-12.8-5-18.3c-0.7-1.3-2.4-1.7-3.7-1
		c-1.3,0.7-1.7,2.4-1,3.7c2.7,4.7,4.2,10,4.2,15.4c0,0.1,0,0.1,0,0.2v0.1c0,15.8,8.9,27.4,21.3,27.4c0,0,0,0,0,0
		c1.5,0,2.7-1.2,2.7-2.7C160.3,105.4,159.1,104.2,157.6,104.2z"/>
	<linearGradient id="SVGID_9_" gradientUnits="userSpaceOnUse" x1="29.6658" y1="86.0476" x2="188.0109" y2="86.0476">
		<stop  offset="0.3102" style="stop-color:#466AB2"/>
		<stop  offset="0.3856" style="stop-color:#5567B0"/>
		<stop  offset="0.647" style="stop-color:#785EA8"/>
		<stop  offset="0.8611" style="stop-color:#8A57A4"/>
		<stop  offset="1" style="stop-color:#9055A2"/>
	</linearGradient>
	<path class="st102" d="M157.6,104.2c-10.4,0-15.9-11-15.9-21.9c0-0.1,0-0.1,0-0.2c0-6.4-1.7-12.8-5-18.3c-0.7-1.3-2.4-1.7-3.7-1
		c-1.3,0.7-1.7,2.4-1,3.7c2.7,4.7,4.2,10,4.2,15.4c0,0.1,0,0.1,0,0.2v0.1c0,15.8,8.9,27.4,21.3,27.4c0,0,0,0,0,0
		c1.5,0,2.7-1.2,2.7-2.7C160.3,105.4,159.1,104.2,157.6,104.2z"/>
	<path d="M157.7,88.6c-2.4,0-2.9-3.4-2.9-6.3v-0.1c0-13.1-5.1-25.5-14.4-34.8c-9.3-9.3-21.6-14.4-34.8-14.4c0,0,0,0,0,0
		c-27.1,0-49.2,22.1-49.2,49.2v0.1c0,2.9-0.5,6.3-2.9,6.3c-1.5,0-2.7,1.2-2.7,2.7c0,1.5,1.2,2.7,2.7,2.7c0,0,0,0,0,0
		c2.5,0,8.3-1.1,8.3-11.7v-0.1c0-24.2,19.6-43.9,43.8-43.9c0,0,0,0,0,0c11.7,0,22.7,4.6,31,12.8c8.3,8.3,12.9,19.3,12.9,31v0.1
		c0,10.5,5.8,11.7,8.3,11.7c0,0,0,0,0,0c1.5,0,2.7-1.2,2.7-2.7C160.3,89.8,159.1,88.6,157.7,88.6z"/>
	<linearGradient id="SVGID_10_" gradientUnits="userSpaceOnUse" x1="29.6658" y1="63.4059" x2="188.0109" y2="63.4059">
		<stop  offset="0.3102" style="stop-color:#466AB2"/>
		<stop  offset="0.3856" style="stop-color:#5567B0"/>
		<stop  offset="0.647" style="stop-color:#785EA8"/>
		<stop  offset="0.8611" style="stop-color:#8A57A4"/>
		<stop  offset="1" style="stop-color:#9055A2"/>
	</linearGradient>
	<path class="st103" d="M157.7,88.6c-2.4,0-2.9-3.4-2.9-6.3v-0.1c0-13.1-5.1-25.5-14.4-34.8c-9.3-9.3-21.6-14.4-34.8-14.4
		c0,0,0,0,0,0c-27.1,0-49.2,22.1-49.2,49.2v0.1c0,2.9-0.5,6.3-2.9,6.3c-1.5,0-2.7,1.2-2.7,2.7c0,1.5,1.2,2.7,2.7,2.7c0,0,0,0,0,0
		c2.5,0,8.3-1.1,8.3-11.7v-0.1c0-24.2,19.6-43.9,43.8-43.9c0,0,0,0,0,0c11.7,0,22.7,4.6,31,12.8c8.3,8.3,12.9,19.3,12.9,31v0.1
		c0,10.5,5.8,11.7,8.3,11.7c0,0,0,0,0,0c1.5,0,2.7-1.2,2.7-2.7C160.3,89.8,159.1,88.6,157.7,88.6z"/>
	<path d="M105.6,19.9C105.6,19.9,105.5,19.9,105.6,19.9c-16.7,0-32.3,6.5-44,18.3s-18.2,27.4-18.2,44c0,1.5,1.2,2.7,2.7,2.7
		c0,0,0,0,0,0c1.5,0,2.7-1.2,2.7-2.7c0-31.4,25.5-56.9,56.8-56.9c0,0,0,0,0,0c31.3,0,56.8,25.5,56.8,56.9c0,1.5,1.2,2.7,2.7,2.7
		c1.5,0,2.7-1.2,2.7-2.7c0,0,0-0.1,0-0.1C167.7,47.8,139.8,19.9,105.6,19.9z"/>
	<linearGradient id="SVGID_11_" gradientUnits="userSpaceOnUse" x1="29.6658" y1="52.3522" x2="188.0109" y2="52.3522">
		<stop  offset="0.3102" style="stop-color:#466AB2"/>
		<stop  offset="0.3856" style="stop-color:#5567B0"/>
		<stop  offset="0.647" style="stop-color:#785EA8"/>
		<stop  offset="0.8611" style="stop-color:#8A57A4"/>
		<stop  offset="1" style="stop-color:#9055A2"/>
	</linearGradient>
	<path class="st104" d="M105.6,19.9C105.6,19.9,105.5,19.9,105.6,19.9c-16.7,0-32.3,6.5-44,18.3s-18.2,27.4-18.2,44
		c0,1.5,1.2,2.7,2.7,2.7c0,0,0,0,0,0c1.5,0,2.7-1.2,2.7-2.7c0-31.4,25.5-56.9,56.8-56.9c0,0,0,0,0,0c31.3,0,56.8,25.5,56.8,56.9
		c0,1.5,1.2,2.7,2.7,2.7c1.5,0,2.7-1.2,2.7-2.7c0,0,0-0.1,0-0.1C167.7,47.8,139.8,19.9,105.6,19.9z"/>
	<path d="M80.7,109c4.7-7.6,7.1-16.9,7.1-26.8c0-1.5-1.2-2.7-2.7-2.7c0,0,0,0,0,0c-1.5,0-2.7,1.2-2.7,2.7c0,18.1-9.2,33.2-22.4,36.9
		c-1.4,0.4-2.3,1.9-1.9,3.3c0.3,1.2,1.4,2,2.6,2c0.2,0,0.5,0,0.7-0.1C69.2,122,75.9,116.8,80.7,109z"/>
	<linearGradient id="SVGID_12_" gradientUnits="userSpaceOnUse" x1="29.6658" y1="101.8526" x2="188.0109" y2="101.8526">
		<stop  offset="0.3102" style="stop-color:#466AB2"/>
		<stop  offset="0.3856" style="stop-color:#5567B0"/>
		<stop  offset="0.647" style="stop-color:#785EA8"/>
		<stop  offset="0.8611" style="stop-color:#8A57A4"/>
		<stop  offset="1" style="stop-color:#9055A2"/>
	</linearGradient>
	<path class="st105" d="M80.7,109c4.7-7.6,7.1-16.9,7.1-26.8c0-1.5-1.2-2.7-2.7-2.7c0,0,0,0,0,0c-1.5,0-2.7,1.2-2.7,2.7
		c0,18.1-9.2,33.2-22.4,36.9c-1.4,0.4-2.3,1.9-1.9,3.3c0.3,1.2,1.4,2,2.6,2c0.2,0,0.5,0,0.7-0.1C69.2,122,75.9,116.8,80.7,109z"/>
	<path d="M85.8,76c0.4,0.2,0.7,0.2,1.1,0.2c1,0,2-0.6,2.4-1.6c1.5-3.3,4-6.1,7.2-8c1.3-0.7,1.7-2.4,1-3.7c-0.7-1.3-2.4-1.7-3.7-1
		c-4.1,2.4-7.4,6-9.4,10.4C83.9,73.8,84.5,75.4,85.8,76z"/>
	<linearGradient id="SVGID_13_" gradientUnits="userSpaceOnUse" x1="29.6658" y1="68.9737" x2="188.0109" y2="68.9737">
		<stop  offset="0.3102" style="stop-color:#466AB2"/>
		<stop  offset="0.3856" style="stop-color:#5567B0"/>
		<stop  offset="0.647" style="stop-color:#785EA8"/>
		<stop  offset="0.8611" style="stop-color:#8A57A4"/>
		<stop  offset="1" style="stop-color:#9055A2"/>
	</linearGradient>
	<path class="st106" d="M85.8,76c0.4,0.2,0.7,0.2,1.1,0.2c1,0,2-0.6,2.4-1.6c1.5-3.3,4-6.1,7.2-8c1.3-0.7,1.7-2.4,1-3.7
		c-0.7-1.3-2.4-1.7-3.7-1c-4.1,2.4-7.4,6-9.4,10.4C83.9,73.8,84.5,75.4,85.8,76z"/>
	<path d="M128.7,82.1c0-7.9-4-15.2-10.6-19.5c-3.7-2.4-8.1-3.7-12.6-3.7c0,0,0,0,0,0c-1.5,0-2.7,1.2-2.7,2.7c0,1.5,1.2,2.7,2.7,2.7
		c0,0,0,0,0,0c3.4,0,6.8,1,9.6,2.9c5.1,3.3,8.1,8.9,8.2,15c0,0,0,0,0,0c0,29.1-10.6,54.3-27.8,65.7c-1.2,0.8-1.6,2.5-0.7,3.7
		c0.5,0.8,1.4,1.2,2.2,1.2c0.5,0,1-0.1,1.5-0.4C117.2,139.9,128.7,113,128.7,82.1C128.7,82.2,128.7,82.2,128.7,82.1z"/>
	<linearGradient id="SVGID_14_" gradientUnits="userSpaceOnUse" x1="29.6658" y1="105.8333" x2="188.0109" y2="105.8333">
		<stop  offset="0.3102" style="stop-color:#466AB2"/>
		<stop  offset="0.3856" style="stop-color:#5567B0"/>
		<stop  offset="0.647" style="stop-color:#785EA8"/>
		<stop  offset="0.8611" style="stop-color:#8A57A4"/>
		<stop  offset="1" style="stop-color:#9055A2"/>
	</linearGradient>
	<path class="st107" d="M128.7,82.1c0-7.9-4-15.2-10.6-19.5c-3.7-2.4-8.1-3.7-12.6-3.7c0,0,0,0,0,0c-1.5,0-2.7,1.2-2.7,2.7
		c0,1.5,1.2,2.7,2.7,2.7c0,0,0,0,0,0c3.4,0,6.8,1,9.6,2.9c5.1,3.3,8.1,8.9,8.2,15c0,0,0,0,0,0c0,29.1-10.6,54.3-27.8,65.7
		c-1.2,0.8-1.6,2.5-0.7,3.7c0.5,0.8,1.4,1.2,2.2,1.2c0.5,0,1-0.1,1.5-0.4C117.2,139.9,128.7,113,128.7,82.1
		C128.7,82.2,128.7,82.2,128.7,82.1z"/>
	<path d="M151.2,119c-6.2-1.7-11.6-5.9-15.7-12.2c-0.8-1.2-2.5-1.6-3.7-0.8c-1.2,0.8-1.6,2.5-0.8,3.7c4.7,7.4,11.2,12.3,18.7,14.4
		c0.2,0.1,0.5,0.1,0.7,0.1c1.2,0,2.3-0.8,2.6-2C153.4,120.9,152.6,119.4,151.2,119z"/>
	<linearGradient id="SVGID_15_" gradientUnits="userSpaceOnUse" x1="29.6658" y1="114.9479" x2="188.0109" y2="114.9479">
		<stop  offset="0.3102" style="stop-color:#466AB2"/>
		<stop  offset="0.3856" style="stop-color:#5567B0"/>
		<stop  offset="0.647" style="stop-color:#785EA8"/>
		<stop  offset="0.8611" style="stop-color:#8A57A4"/>
		<stop  offset="1" style="stop-color:#9055A2"/>
	</linearGradient>
	<path class="st108" d="M151.2,119c-6.2-1.7-11.6-5.9-15.7-12.2c-0.8-1.2-2.5-1.6-3.7-0.8c-1.2,0.8-1.6,2.5-0.8,3.7
		c4.7,7.4,11.2,12.3,18.7,14.4c0.2,0.1,0.5,0.1,0.7,0.1c1.2,0,2.3-0.8,2.6-2C153.4,120.9,152.6,119.4,151.2,119z"/>
</g>
</svg>
