<?xml version="1.0" encoding="utf-8"?>
<!-- Generator: Adobe Illustrator 22.1.0, SVG Export Plug-In . SVG Version: 6.00 Build 0)  -->
<svg version="1.1" id="Layer_1" xmlns="http://www.w3.org/2000/svg" xmlns:xlink="http://www.w3.org/1999/xlink" x="0px" y="0px"
	 viewBox="0 0 200 170" style="enable-background:new 0 0 200 170;" xml:space="preserve">
<style type="text/css">
	.st0{fill:#95CBEE;}
	.st1{clip-path:url(#SVGID_2_);fill:#466AB2;}
	.st2{clip-path:url(#SVGID_2_);fill:#486AB2;}
	.st3{clip-path:url(#SVGID_2_);fill:#496AB2;}
	.st4{clip-path:url(#SVGID_2_);fill:#4B6AB2;}
	.st5{clip-path:url(#SVGID_2_);fill:#4C6AB2;}
	.st6{clip-path:url(#SVGID_2_);fill:#4E6BB3;}
	.st7{clip-path:url(#SVGID_2_);fill:#506BB3;}
	.st8{clip-path:url(#SVGID_2_);fill:#516BB3;}
	.st9{clip-path:url(#SVGID_2_);fill:#536BB3;}
	.st10{clip-path:url(#SVGID_2_);fill:#546BB3;}
	.st11{clip-path:url(#SVGID_2_);fill:#556BB3;}
	.st12{clip-path:url(#SVGID_2_);fill:#576CB3;}
	.st13{clip-path:url(#SVGID_2_);fill:#586CB3;}
	.st14{clip-path:url(#SVGID_2_);fill:#5A6CB3;}
	.st15{clip-path:url(#SVGID_2_);fill:#5B6CB3;}
	.st16{clip-path:url(#SVGID_2_);fill:#5C6CB3;}
	.st17{clip-path:url(#SVGID_2_);fill:#5E6CB3;}
	.st18{clip-path:url(#SVGID_2_);fill:#5F6DB3;}
	.st19{clip-path:url(#SVGID_2_);fill:#606DB3;}
	.st20{clip-path:url(#SVGID_2_);fill:#616DB3;}
	.st21{clip-path:url(#SVGID_2_);fill:#636DB3;}
	.st22{clip-path:url(#SVGID_2_);fill:#646DB3;}
	.st23{clip-path:url(#SVGID_2_);fill:#656EB3;}
	.st24{clip-path:url(#SVGID_2_);fill:#666EB3;}
	.st25{clip-path:url(#SVGID_2_);fill:#676EB3;}
	.st26{clip-path:url(#SVGID_2_);fill:#696EB3;}
	.st27{clip-path:url(#SVGID_2_);fill:#6A6EB3;}
	.st28{clip-path:url(#SVGID_2_);fill:#6B6EB3;}
	.st29{clip-path:url(#SVGID_2_);fill:#6C6FB3;}
	.st30{clip-path:url(#SVGID_2_);fill:#6D6FB3;}
	.st31{clip-path:url(#SVGID_2_);fill:#6E6FB3;}
	.st32{clip-path:url(#SVGID_2_);fill:#6F6FB3;}
	.st33{clip-path:url(#SVGID_2_);fill:#706FB4;}
	.st34{clip-path:url(#SVGID_2_);fill:#716FB4;}
	.st35{clip-path:url(#SVGID_2_);fill:#7270B4;}
	.st36{clip-path:url(#SVGID_2_);fill:#7370B4;}
	.st37{clip-path:url(#SVGID_2_);fill:#7470B4;}
	.st38{clip-path:url(#SVGID_2_);fill:#7570B4;}
	.st39{clip-path:url(#SVGID_2_);fill:#7670B4;}
	.st40{clip-path:url(#SVGID_2_);fill:#7770B4;}
	.st41{clip-path:url(#SVGID_2_);fill:#7871B4;}
	.st42{clip-path:url(#SVGID_2_);fill:#7971B4;}
	.st43{clip-path:url(#SVGID_2_);fill:#7A71B4;}
	.st44{clip-path:url(#SVGID_2_);fill:#7B71B4;}
	.st45{clip-path:url(#SVGID_2_);fill:#7C71B4;}
	.st46{clip-path:url(#SVGID_2_);fill:#7D71B4;}
	.st47{clip-path:url(#SVGID_2_);fill:#7E72B4;}
	.st48{clip-path:url(#SVGID_2_);fill:#7F72B4;}
	.st49{clip-path:url(#SVGID_2_);fill:#8072B4;}
	.st50{clip-path:url(#SVGID_2_);fill:#8172B4;}
	.st51{clip-path:url(#SVGID_2_);fill:#8272B4;}
	.st52{clip-path:url(#SVGID_2_);fill:#8372B4;}
	.st53{clip-path:url(#SVGID_2_);fill:#8373B4;}
	.st54{clip-path:url(#SVGID_2_);fill:#8473B4;}
	.st55{clip-path:url(#SVGID_2_);fill:#8573B4;}
	.st56{clip-path:url(#SVGID_2_);fill:#8673B4;}
	.st57{clip-path:url(#SVGID_2_);fill:#8773B4;}
	.st58{clip-path:url(#SVGID_2_);fill:#8873B4;}
	.st59{clip-path:url(#SVGID_2_);fill:#8874B4;}
	.st60{clip-path:url(#SVGID_2_);fill:#8974B4;}
	.st61{clip-path:url(#SVGID_2_);fill:#8A74B5;}
	.st62{clip-path:url(#SVGID_2_);fill:#8B74B5;}
	.st63{clip-path:url(#SVGID_2_);fill:#8C74B5;}
	.st64{clip-path:url(#SVGID_2_);fill:#8D75B5;}
	.st65{clip-path:url(#SVGID_2_);fill:#8E75B5;}
	.st66{clip-path:url(#SVGID_2_);fill:#8F75B5;}
	.st67{clip-path:url(#SVGID_2_);fill:#9075B5;}
	.st68{clip-path:url(#SVGID_2_);fill:#9175B5;}
	.st69{clip-path:url(#SVGID_2_);fill:#9275B5;}
	.st70{clip-path:url(#SVGID_2_);fill:#9276B5;}
	.st71{clip-path:url(#SVGID_2_);fill:#9376B5;}
	.st72{clip-path:url(#SVGID_2_);fill:#9476B5;}
	.st73{clip-path:url(#SVGID_2_);fill:#9576B5;}
	.st74{clip-path:url(#SVGID_2_);fill:#9676B5;}
	.st75{clip-path:url(#SVGID_2_);fill:#9776B5;}
	.st76{clip-path:url(#SVGID_2_);fill:#9777B5;}
	.st77{clip-path:url(#SVGID_2_);fill:#9877B5;}
	.st78{clip-path:url(#SVGID_2_);fill:#9977B5;}
	.st79{clip-path:url(#SVGID_2_);fill:#9A77B5;}
	.st80{clip-path:url(#SVGID_2_);fill:#9B77B5;}
	.st81{clip-path:url(#SVGID_2_);fill:#9C78B5;}
	.st82{clip-path:url(#SVGID_2_);fill:#9D78B5;}
	.st83{clip-path:url(#SVGID_2_);fill:#9E78B5;}
	.st84{clip-path:url(#SVGID_2_);fill:#9F78B5;}
	.st85{clip-path:url(#SVGID_2_);fill:#A078B5;}
	.st86{clip-path:url(#SVGID_2_);fill:#A079B5;}
	.st87{clip-path:url(#SVGID_2_);fill:#A179B5;}
	.st88{clip-path:url(#SVGID_2_);fill:#A179B6;}
	.st89{clip-path:url(#SVGID_2_);fill:#A279B6;}
	.st90{clip-path:url(#SVGID_2_);fill:#A379B6;}
	.st91{clip-path:url(#SVGID_2_);fill:#A479B6;}
	.st92{clip-path:url(#SVGID_2_);fill:#A47AB6;}
	.st93{clip-path:url(#SVGID_2_);fill:#A57AB6;}
	.st94{fill:url(#SVGID_3_);}
	.st95{fill:none;stroke:#95CBEE;stroke-width:4;stroke-linecap:round;stroke-linejoin:round;stroke-miterlimit:10;}
	.st96{fill-rule:evenodd;clip-rule:evenodd;fill:#95CBEE;}
	.st97{fill:url(#SVGID_4_);}
	.st98{fill:url(#SVGID_5_);}
	.st99{fill:url(#SVGID_6_);}
	.st100{fill:url(#SVGID_7_);}
	.st101{fill:url(#SVGID_8_);}
	.st102{fill:url(#SVGID_9_);}
	.st103{fill:url(#SVGID_10_);}
	.st104{fill:url(#SVGID_11_);}
	.st105{fill:url(#SVGID_12_);}
	.st106{fill:url(#SVGID_13_);}
	.st107{fill:url(#SVGID_14_);}
	.st108{fill:url(#SVGID_15_);}
	.st109{fill:url(#SVGID_16_);}
	.st110{fill:url(#SVGID_17_);}
	.st111{fill:url(#SVGID_18_);}
	.st112{fill:url(#SVGID_19_);}
	.st113{fill:url(#SVGID_20_);}
	.st114{fill:url(#SVGID_21_);}
	.st115{fill:url(#SVGID_22_);}
	.st116{fill:url(#SVGID_23_);}
	.st117{fill:url(#SVGID_24_);}
</style>
<g>
	<path class="st0" d="M103.1,66.6H68.5c-8.1,0-14.8-6.6-14.8-14.8c0-8.1,6.6-14.8,14.8-14.8c0.6,0,1.1,0,1.7,0.1
		c2.2-6.6,8.4-11,15.4-11c5.7,0,10.6,2.4,13.5,7.3c0.4,0.6,0.2,1.4-0.5,1.8c-0.6,0.4-1.4,0.2-1.8-0.5c-2.4-4.1-6.5-6-11.3-6
		c-6.2,0-11.6,4.2-13.2,10.2c-0.2,0.7-0.8,1.1-1.5,1c-0.8-0.2-1.6-0.2-2.4-0.2c-6.7,0-12.2,5.5-12.2,12.2c0,6.7,5.5,12.2,12.2,12.2
		h33.6"/>
	<path class="st0" d="M73.9,69.4c0.8,7.8,7.4,13.9,15.4,13.9h34.3v-0.1c0.6,0.1,1.2,0.1,1.9,0.1c9.8,0,17.7-7.9,17.7-17.7
		S135.3,48,125.5,48c-0.1,0-0.3,0-0.4,0c-2.9-6.9-9.8-11.8-17.8-11.8c-9.6,0-17.5,7-19,16.1c-4.5,0.3-10,2.6-12.5,8.2l23.3,0.1
		c2.1-4.4,5.2-5,7.7-5c4.6,0,8.4,3.8,8.4,8.4s-3.8,8.4-8.4,8.4c-2.5,0-4.8-1.1-6.3-2.9L73.9,69.4z"/>
	<circle class="st0" cx="106.5" cy="64.2" r="5.2"/>
	<g>
		<rect x="110.6" y="132" class="st0" width="34.6" height="17.9"/>
		<linearGradient id="SVGID_2_" gradientUnits="userSpaceOnUse" x1="108.336" y1="102.7652" x2="170.4028" y2="102.7652">
			<stop  offset="0.3102" style="stop-color:#466AB2"/>
			<stop  offset="0.5215" style="stop-color:#716FB4"/>
			<stop  offset="0.7256" style="stop-color:#8E75B5"/>
			<stop  offset="0.8921" style="stop-color:#9F78B5"/>
			<stop  offset="1" style="stop-color:#A57AB6"/>
		</linearGradient>
		<path style="fill:url(#SVGID_2_);" d="M170.3,94.9V61.5c0-2.6-0.8-4.6-2.3-6.1c-2.1-2-4.8-2-5.1-2c-0.1,0-0.2,0-0.2,0
			c-5.6,0.7-6.7,7.1-6.5,10.5l-1,13.3c-0.4-0.2-0.7-0.4-1-0.5c-3.7-1.3-6.7,0.9-7.8,2.4c-0.1,0.1-0.2,0.2-0.2,0.4L139,92.9
			c-3.4,0.3-11.8,2.1-16.4,11.2c-0.6,1-6.1,11-7.7,24.8c-3.7,0.3-6.5,3.4-6.5,7.1v9.1c0,4,3.2,7.2,7.2,7.2h24.9c4,0,7.2-3.2,7.2-7.2
			V136c0-2.9-1.8-5.5-4.3-6.6l21.8-20.6C165.2,108.6,171.4,103,170.3,94.9z M143,145c0,1.4-1.2,2.6-2.6,2.6h-24.9
			c-1.4,0-2.6-1.2-2.6-2.6V136c0-1.4,1.2-2.6,2.6-2.6h1.2c0,0,0,0,0.1,0c0.1,0,0.1,0,0.2,0c0.1,0,0.1,0,0.2,0h23.2
			c1.4,0,2.6,1.2,2.6,2.6V145z M161.9,105.5l-24.7,23.3h-17.7c1.7-12.9,7-22.4,7.1-22.5c0,0,0-0.1,0.1-0.1
			c4.4-8.8,13.4-8.8,13.7-8.8c0.9,0.1,1.7-0.5,2.1-1.2l7.5-14.2c0.4-0.4,1.4-1.3,2.6-0.8c0.1,0,1.9,0.7,2.1,2.2l-11,21.6
			c-0.6,1.1-0.1,2.5,1,3.1c1.1,0.6,2.5,0.1,3.1-1L159,84.8c0.1-0.1,0.1-0.3,0.2-0.4c0-0.1,0.1-0.3,0.1-0.4l1.5-19.9
			c0-0.1,0-0.2,0-0.3c0-0.1-0.3-5.3,2.4-5.8c0.3,0,1.1,0.1,1.7,0.7c0.6,0.6,0.9,1.5,0.9,2.8v33.6c0,0.1,0,0.2,0,0.3
			C166.6,101.1,162,105.4,161.9,105.5z"/>
	</g>
	<g>
		
			<rect x="60.1" y="132" transform="matrix(-1 -4.491175e-11 4.491175e-11 -1 154.8233 281.8577)" class="st0" width="34.6" height="17.9"/>
		
			<linearGradient id="SVGID_3_" gradientUnits="userSpaceOnUse" x1="-818.5966" y1="102.7652" x2="-756.5298" y2="102.7652" gradientTransform="matrix(-1 0 0 1 -721.5776 0)">
			<stop  offset="0.3102" style="stop-color:#466AB2"/>
			<stop  offset="0.5215" style="stop-color:#716FB4"/>
			<stop  offset="0.7256" style="stop-color:#8E75B5"/>
			<stop  offset="0.8921" style="stop-color:#9F78B5"/>
			<stop  offset="1" style="stop-color:#A57AB6"/>
		</linearGradient>
		<path class="st94" d="M40.4,108.8l21.8,20.6c-2.5,1.1-4.3,3.6-4.3,6.6v9.1c0,4,3.2,7.2,7.2,7.2h24.9c4,0,7.2-3.2,7.2-7.2V136
			c0-3.7-2.9-6.8-6.5-7.1c-1.6-13.8-7.1-23.8-7.7-24.8c-4.6-9.2-13-10.9-16.4-11.2l-7.1-13.3c-0.1-0.1-0.1-0.2-0.2-0.4
			c-1.2-1.5-4.2-3.7-7.8-2.4c-0.3,0.1-0.7,0.3-1,0.5l-1-13.3c0.2-3.4-0.9-9.8-6.5-10.5c-0.1,0-0.2,0-0.2,0c-0.3,0-3,0-5.1,2
			c-1.5,1.5-2.3,3.5-2.3,6.1v33.4C34,103,40.1,108.6,40.4,108.8z M62.4,136c0-1.4,1.2-2.6,2.6-2.6h23.2c0.1,0,0.1,0,0.2,0
			c0.1,0,0.1,0,0.2,0c0,0,0,0,0.1,0h1.2c1.4,0,2.6,1.2,2.6,2.6v9.1c0,1.4-1.2,2.6-2.6,2.6H65c-1.4,0-2.6-1.2-2.6-2.6V136z
			 M39.6,95.4c0-0.1,0-0.2,0-0.3V61.5c0-1.3,0.3-2.3,0.9-2.8c0.6-0.6,1.4-0.7,1.7-0.7c2.7,0.5,2.4,5.7,2.4,5.8c0,0.1,0,0.2,0,0.3
			l1.5,19.9c0,0.2,0,0.3,0.1,0.4c0,0.2,0.1,0.3,0.2,0.4L57.6,107c0.6,1.1,2,1.6,3.1,1c1.1-0.6,1.6-2,1-3.1l-11-21.6
			c0.2-1.4,2-2.1,2.1-2.2c1.3-0.4,2.3,0.5,2.6,0.8l7.5,14.2c0.4,0.8,1.2,1.3,2.1,1.2c0.4,0,9.3,0,13.7,8.8c0,0,0,0.1,0.1,0.1
			c0.1,0.1,5.4,9.6,7.1,22.5H68.2l-24.7-23.3C43.4,105.4,38.8,101.1,39.6,95.4z"/>
	</g>
</g>
</svg>
