<?xml version="1.0" encoding="utf-8"?>
<!-- Generator: Adobe Illustrator 22.1.0, SVG Export Plug-In . SVG Version: 6.00 Build 0)  -->
<svg version="1.1" id="Layer_1" xmlns="http://www.w3.org/2000/svg" xmlns:xlink="http://www.w3.org/1999/xlink" x="0px" y="0px"
	 viewBox="0 0 200 170" style="enable-background:new 0 0 200 170;" xml:space="preserve">
<style type="text/css">
	.st0{fill:#95CBEE;}
	.st1{clip-path:url(#SVGID_2_);fill:#466AB2;}
	.st2{clip-path:url(#SVGID_2_);fill:#486AB2;}
	.st3{clip-path:url(#SVGID_2_);fill:#496AB2;}
	.st4{clip-path:url(#SVGID_2_);fill:#4B6AB2;}
	.st5{clip-path:url(#SVGID_2_);fill:#4C6AB2;}
	.st6{clip-path:url(#SVGID_2_);fill:#4E6BB3;}
	.st7{clip-path:url(#SVGID_2_);fill:#506BB3;}
	.st8{clip-path:url(#SVGID_2_);fill:#516BB3;}
	.st9{clip-path:url(#SVGID_2_);fill:#536BB3;}
	.st10{clip-path:url(#SVGID_2_);fill:#546BB3;}
	.st11{clip-path:url(#SVGID_2_);fill:#556BB3;}
	.st12{clip-path:url(#SVGID_2_);fill:#576CB3;}
	.st13{clip-path:url(#SVGID_2_);fill:#586CB3;}
	.st14{clip-path:url(#SVGID_2_);fill:#5A6CB3;}
	.st15{clip-path:url(#SVGID_2_);fill:#5B6CB3;}
	.st16{clip-path:url(#SVGID_2_);fill:#5C6CB3;}
	.st17{clip-path:url(#SVGID_2_);fill:#5E6CB3;}
	.st18{clip-path:url(#SVGID_2_);fill:#5F6DB3;}
	.st19{clip-path:url(#SVGID_2_);fill:#606DB3;}
	.st20{clip-path:url(#SVGID_2_);fill:#616DB3;}
	.st21{clip-path:url(#SVGID_2_);fill:#636DB3;}
	.st22{clip-path:url(#SVGID_2_);fill:#646DB3;}
	.st23{clip-path:url(#SVGID_2_);fill:#656EB3;}
	.st24{clip-path:url(#SVGID_2_);fill:#666EB3;}
	.st25{clip-path:url(#SVGID_2_);fill:#676EB3;}
	.st26{clip-path:url(#SVGID_2_);fill:#696EB3;}
	.st27{clip-path:url(#SVGID_2_);fill:#6A6EB3;}
	.st28{clip-path:url(#SVGID_2_);fill:#6B6EB3;}
	.st29{clip-path:url(#SVGID_2_);fill:#6C6FB3;}
	.st30{clip-path:url(#SVGID_2_);fill:#6D6FB3;}
	.st31{clip-path:url(#SVGID_2_);fill:#6E6FB3;}
	.st32{clip-path:url(#SVGID_2_);fill:#6F6FB3;}
	.st33{clip-path:url(#SVGID_2_);fill:#706FB4;}
	.st34{clip-path:url(#SVGID_2_);fill:#716FB4;}
	.st35{clip-path:url(#SVGID_2_);fill:#7270B4;}
	.st36{clip-path:url(#SVGID_2_);fill:#7370B4;}
	.st37{clip-path:url(#SVGID_2_);fill:#7470B4;}
	.st38{clip-path:url(#SVGID_2_);fill:#7570B4;}
	.st39{clip-path:url(#SVGID_2_);fill:#7670B4;}
	.st40{clip-path:url(#SVGID_2_);fill:#7770B4;}
	.st41{clip-path:url(#SVGID_2_);fill:#7871B4;}
	.st42{clip-path:url(#SVGID_2_);fill:#7971B4;}
	.st43{clip-path:url(#SVGID_2_);fill:#7A71B4;}
	.st44{clip-path:url(#SVGID_2_);fill:#7B71B4;}
	.st45{clip-path:url(#SVGID_2_);fill:#7C71B4;}
	.st46{clip-path:url(#SVGID_2_);fill:#7D71B4;}
	.st47{clip-path:url(#SVGID_2_);fill:#7E72B4;}
	.st48{clip-path:url(#SVGID_2_);fill:#7F72B4;}
	.st49{clip-path:url(#SVGID_2_);fill:#8072B4;}
	.st50{clip-path:url(#SVGID_2_);fill:#8172B4;}
	.st51{clip-path:url(#SVGID_2_);fill:#8272B4;}
	.st52{clip-path:url(#SVGID_2_);fill:#8372B4;}
	.st53{clip-path:url(#SVGID_2_);fill:#8373B4;}
	.st54{clip-path:url(#SVGID_2_);fill:#8473B4;}
	.st55{clip-path:url(#SVGID_2_);fill:#8573B4;}
	.st56{clip-path:url(#SVGID_2_);fill:#8673B4;}
	.st57{clip-path:url(#SVGID_2_);fill:#8773B4;}
	.st58{clip-path:url(#SVGID_2_);fill:#8873B4;}
	.st59{clip-path:url(#SVGID_2_);fill:#8874B4;}
	.st60{clip-path:url(#SVGID_2_);fill:#8974B4;}
	.st61{clip-path:url(#SVGID_2_);fill:#8A74B5;}
	.st62{clip-path:url(#SVGID_2_);fill:#8B74B5;}
	.st63{clip-path:url(#SVGID_2_);fill:#8C74B5;}
	.st64{clip-path:url(#SVGID_2_);fill:#8D75B5;}
	.st65{clip-path:url(#SVGID_2_);fill:#8E75B5;}
	.st66{clip-path:url(#SVGID_2_);fill:#8F75B5;}
	.st67{clip-path:url(#SVGID_2_);fill:#9075B5;}
	.st68{clip-path:url(#SVGID_2_);fill:#9175B5;}
	.st69{clip-path:url(#SVGID_2_);fill:#9275B5;}
	.st70{clip-path:url(#SVGID_2_);fill:#9276B5;}
	.st71{clip-path:url(#SVGID_2_);fill:#9376B5;}
	.st72{clip-path:url(#SVGID_2_);fill:#9476B5;}
	.st73{clip-path:url(#SVGID_2_);fill:#9576B5;}
	.st74{clip-path:url(#SVGID_2_);fill:#9676B5;}
	.st75{clip-path:url(#SVGID_2_);fill:#9776B5;}
	.st76{clip-path:url(#SVGID_2_);fill:#9777B5;}
	.st77{clip-path:url(#SVGID_2_);fill:#9877B5;}
	.st78{clip-path:url(#SVGID_2_);fill:#9977B5;}
	.st79{clip-path:url(#SVGID_2_);fill:#9A77B5;}
	.st80{clip-path:url(#SVGID_2_);fill:#9B77B5;}
	.st81{clip-path:url(#SVGID_2_);fill:#9C78B5;}
	.st82{clip-path:url(#SVGID_2_);fill:#9D78B5;}
	.st83{clip-path:url(#SVGID_2_);fill:#9E78B5;}
	.st84{clip-path:url(#SVGID_2_);fill:#9F78B5;}
	.st85{clip-path:url(#SVGID_2_);fill:#A078B5;}
	.st86{clip-path:url(#SVGID_2_);fill:#A079B5;}
	.st87{clip-path:url(#SVGID_2_);fill:#A179B5;}
	.st88{clip-path:url(#SVGID_2_);fill:#A179B6;}
	.st89{clip-path:url(#SVGID_2_);fill:#A279B6;}
	.st90{clip-path:url(#SVGID_2_);fill:#A379B6;}
	.st91{clip-path:url(#SVGID_2_);fill:#A479B6;}
	.st92{clip-path:url(#SVGID_2_);fill:#A47AB6;}
	.st93{clip-path:url(#SVGID_2_);fill:#A57AB6;}
	.st94{fill:url(#SVGID_3_);}
	.st95{fill:none;stroke:#95CBEE;stroke-width:4;stroke-linecap:round;stroke-linejoin:round;stroke-miterlimit:10;}
	.st96{fill-rule:evenodd;clip-rule:evenodd;fill:#95CBEE;}
	.st97{fill:url(#SVGID_4_);}
	.st98{fill:url(#SVGID_5_);}
	.st99{fill:url(#SVGID_6_);}
	.st100{fill:url(#SVGID_7_);}
	.st101{fill:url(#SVGID_8_);}
	.st102{fill:url(#SVGID_9_);}
	.st103{fill:url(#SVGID_10_);}
	.st104{fill:url(#SVGID_11_);}
	.st105{fill:url(#SVGID_12_);}
	.st106{fill:url(#SVGID_13_);}
	.st107{fill:url(#SVGID_14_);}
	.st108{fill:url(#SVGID_15_);}
	.st109{fill:url(#SVGID_16_);}
	.st110{fill:url(#SVGID_17_);}
	.st111{fill:url(#SVGID_18_);}
	.st112{fill:url(#SVGID_19_);}
	.st113{fill:url(#SVGID_20_);}
	.st114{fill:url(#SVGID_21_);}
	.st115{fill:url(#SVGID_22_);}
	.st116{fill:url(#SVGID_23_);}
	.st117{fill:url(#SVGID_24_);}
</style>
<g>
	<g>
		<path class="st96" d="M137.2,55c-0.1-1-1.3-1.8-2.4-1.8c-3.4,0-6.3-2-7.6-5c-1.3-3.1-0.5-6.8,2-9.1c0.8-0.7,0.9-1.9,0.2-2.7
			c-1.7-2.2-3.7-4.2-5.8-5.9c-0.8-0.7-2.1-0.6-2.8,0.2c-2.2,2.4-6.1,3.3-9.1,2.1c-3.2-1.3-5.1-4.5-4.9-8c0.1-1.1-0.7-2-1.8-2.1
			c-2.8-0.3-5.5-0.3-8.3,0c-1.1,0.1-1.8,1-1.8,2.1c0.1,3.4-1.9,6.5-5,7.8c-3,1.2-6.9,0.3-9.1-2.1c-0.7-0.8-1.9-0.9-2.8-0.2
			c-2.2,1.7-4.2,3.7-5.9,5.9c-0.7,0.8-0.6,2.1,0.2,2.8c2.6,2.3,3.4,6,2,9.1c-1.3,3-4.4,5-8,5c-1.2,0-2,0.7-2.1,1.8
			c-0.3,2.8-0.3,5.6,0,8.3c0.1,1,1.4,1.8,2.4,1.8c3.2-0.1,6.3,1.9,7.5,5c1.3,3.1,0.5,6.8-2,9.1c-0.8,0.7-0.9,1.9-0.2,2.8
			c1.7,2.2,3.6,4.1,5.8,5.8c0.8,0.7,2.1,0.6,2.8-0.2c2.2-2.4,6.1-3.3,9.1-2.1c3.2,1.3,5.2,4.5,5,7.9c-0.1,1.1,0.7,2,1.8,2.1
			c1.4,0.2,2.8,0.2,4.2,0.2c1.4,0,2.7-0.1,4.1-0.2c1.1-0.1,1.8-1,1.8-2.1c-0.1-3.4,1.9-6.5,5-7.8c3-1.2,6.9-0.3,9.1,2.1
			c0.7,0.8,1.9,0.9,2.8,0.2c2.2-1.7,4.2-3.7,6-5.9c0.7-0.8,0.5-2-0.2-2.8c-2.5-2.3-3.4-6-2.1-9.1c1.2-3,4.3-5,7.5-5l0.5,0
			c1.1,0.1,2-0.7,2.1-1.8C137.5,60.6,137.5,57.8,137.2,55L137.2,55z M100.8,71.4c-7.2,0-13-6.3-12.1-13.6
			c0.6-5.6,5.2-10.1,10.7-10.7c7.4-0.8,13.6,4.9,13.6,12.1C113,65.9,107.5,71.4,100.8,71.4L100.8,71.4z M100.8,71.4"/>
	</g>
</g>
<g>
	<rect x="106.9" y="130.6" class="st0" width="33.3" height="17.3"/>
	<linearGradient id="SVGID_2_" gradientUnits="userSpaceOnUse" x1="104.6561" y1="102.4668" x2="164.3794" y2="102.4668">
		<stop  offset="0.3102" style="stop-color:#466AB2"/>
		<stop  offset="0.5215" style="stop-color:#716FB4"/>
		<stop  offset="0.7256" style="stop-color:#8E75B5"/>
		<stop  offset="0.8921" style="stop-color:#9F78B5"/>
		<stop  offset="1" style="stop-color:#A57AB6"/>
	</linearGradient>
	<path style="fill:url(#SVGID_2_);" d="M164.3,94.9V62.7c0-2.5-0.7-4.5-2.2-5.9c-2-2-4.6-2-4.9-1.9c-0.1,0-0.1,0-0.2,0
		c-5.4,0.7-6.5,6.8-6.3,10.1l-1,12.8c-0.4-0.2-0.7-0.3-1-0.4c-3.5-1.2-6.4,0.9-7.5,2.3c-0.1,0.1-0.2,0.2-0.2,0.3l-6.8,12.8
		c-3.3,0.3-11.4,2-15.8,10.8c-0.5,0.9-5.8,10.6-7.4,23.8c-3.5,0.3-6.3,3.3-6.3,6.9v8.7c0,3.8,3.1,6.9,6.9,6.9h23.9
		c3.8,0,6.9-3.1,6.9-6.9v-8.7c0-2.8-1.7-5.3-4.2-6.3l20.9-19.8C159.4,108.1,165.3,102.7,164.3,94.9z M138,143.1
		c0,1.4-1.1,2.5-2.5,2.5h-23.9c-1.4,0-2.5-1.1-2.5-2.5v-8.7c0-1.4,1.1-2.5,2.5-2.5h1.1c0,0,0,0,0.1,0c0.1,0,0.1,0,0.2,0
		c0.1,0,0.1,0,0.2,0h22.3c1.4,0,2.5,1.1,2.5,2.5V143.1z M156.2,105.1l-23.8,22.5h-17c1.6-12.4,6.7-21.6,6.8-21.6c0,0,0-0.1,0.1-0.1
		c4.2-8.5,12.9-8.5,13.2-8.5c0.8,0.1,1.6-0.4,2-1.2l7.3-13.7c0.3-0.4,1.3-1.2,2.5-0.8c0.1,0,1.8,0.7,2,2.1l-10.6,20.8
		c-0.6,1.1-0.1,2.4,1,3c1.1,0.6,2.4,0.1,3-1l10.9-21.3c0.1-0.1,0.1-0.3,0.2-0.4c0-0.1,0.1-0.3,0.1-0.4l1.4-19.1c0-0.1,0-0.2,0-0.3
		c0-0.1-0.3-5.1,2.3-5.6c0.3,0,1,0.1,1.6,0.7c0.6,0.5,0.8,1.5,0.8,2.7v32.3c0,0.1,0,0.2,0,0.3C160.7,100.9,156.3,105,156.2,105.1z"
		/>
</g>
<g>
	
		<rect x="58.2" y="130.6" transform="matrix(-1 -4.492685e-11 4.492685e-11 -1 149.7986 278.3791)" class="st0" width="33.3" height="17.3"/>
	
		<linearGradient id="SVGID_3_" gradientUnits="userSpaceOnUse" x1="64.6561" y1="102.4668" x2="124.3794" y2="102.4668" gradientTransform="matrix(-1 0 0 1 158.4224 0)">
		<stop  offset="0.3102" style="stop-color:#466AB2"/>
		<stop  offset="0.5215" style="stop-color:#716FB4"/>
		<stop  offset="0.7256" style="stop-color:#8E75B5"/>
		<stop  offset="0.8921" style="stop-color:#9F78B5"/>
		<stop  offset="1" style="stop-color:#A57AB6"/>
	</linearGradient>
	<path class="st94" d="M39.3,108.3l20.9,19.8c-2.4,1.1-4.2,3.5-4.2,6.3v8.7c0,3.8,3.1,6.9,6.9,6.9h23.9c3.8,0,6.9-3.1,6.9-6.9v-8.7
		c0-3.6-2.8-6.6-6.3-6.9c-1.6-13.2-6.9-22.9-7.4-23.8c-4.4-8.8-12.5-10.5-15.8-10.8l-6.8-12.8c-0.1-0.1-0.1-0.2-0.2-0.3
		c-1.1-1.4-4-3.5-7.5-2.3c-0.3,0.1-0.6,0.3-1,0.4l-1-12.8c0.2-3.3-0.8-9.4-6.3-10.1c-0.1,0-0.1,0-0.2,0c-0.3,0-2.9,0-4.9,1.9
		c-1.4,1.4-2.2,3.4-2.2,5.9v32.2C33.1,102.7,39,108.1,39.3,108.3z M60.4,134.4c0-1.4,1.1-2.5,2.5-2.5h22.3c0.1,0,0.1,0,0.2,0
		c0.1,0,0.1,0,0.2,0c0,0,0,0,0.1,0h1.1c1.4,0,2.5,1.1,2.5,2.5v8.7c0,1.4-1.1,2.5-2.5,2.5H62.9c-1.4,0-2.5-1.1-2.5-2.5V134.4z
		 M38.6,95.4c0-0.1,0-0.2,0-0.3V62.7c0-1.3,0.3-2.2,0.8-2.7c0.6-0.6,1.4-0.7,1.6-0.7c2.6,0.5,2.3,5.5,2.3,5.6c0,0.1,0,0.2,0,0.3
		l1.4,19.1c0,0.1,0,0.3,0.1,0.4c0,0.1,0.1,0.3,0.2,0.4l10.9,21.3c0.6,1.1,1.9,1.5,3,1c1.1-0.6,1.5-1.9,1-3L49.2,83.7
		c0.2-1.4,1.9-2,2-2.1c1.2-0.4,2.2,0.5,2.5,0.8l7.3,13.7c0.4,0.7,1.2,1.2,2,1.2c0.4,0,9,0,13.2,8.5c0,0,0,0.1,0.1,0.1
		c0.1,0.1,5.2,9.2,6.8,21.6H66l-23.8-22.5C42.2,105,37.7,100.9,38.6,95.4z"/>
</g>
</svg>
