<?xml version="1.0" encoding="utf-8"?>
<!-- Generator: Adobe Illustrator 22.1.0, SVG Export Plug-In . SVG Version: 6.00 Build 0)  -->
<svg version="1.1" id="Layer_1" xmlns="http://www.w3.org/2000/svg" xmlns:xlink="http://www.w3.org/1999/xlink" x="0px" y="0px"
	 viewBox="0 0 200 170" style="enable-background:new 0 0 200 170;" xml:space="preserve">
<style type="text/css">
	.st0{fill:#95CBEE;}
	.st1{clip-path:url(#SVGID_2_);fill:#466AB2;}
	.st2{clip-path:url(#SVGID_2_);fill:#486AB2;}
	.st3{clip-path:url(#SVGID_2_);fill:#496AB2;}
	.st4{clip-path:url(#SVGID_2_);fill:#4B6AB2;}
	.st5{clip-path:url(#SVGID_2_);fill:#4C6AB2;}
	.st6{clip-path:url(#SVGID_2_);fill:#4E6BB3;}
	.st7{clip-path:url(#SVGID_2_);fill:#506BB3;}
	.st8{clip-path:url(#SVGID_2_);fill:#516BB3;}
	.st9{clip-path:url(#SVGID_2_);fill:#536BB3;}
	.st10{clip-path:url(#SVGID_2_);fill:#546BB3;}
	.st11{clip-path:url(#SVGID_2_);fill:#556BB3;}
	.st12{clip-path:url(#SVGID_2_);fill:#576CB3;}
	.st13{clip-path:url(#SVGID_2_);fill:#586CB3;}
	.st14{clip-path:url(#SVGID_2_);fill:#5A6CB3;}
	.st15{clip-path:url(#SVGID_2_);fill:#5B6CB3;}
	.st16{clip-path:url(#SVGID_2_);fill:#5C6CB3;}
	.st17{clip-path:url(#SVGID_2_);fill:#5E6CB3;}
	.st18{clip-path:url(#SVGID_2_);fill:#5F6DB3;}
	.st19{clip-path:url(#SVGID_2_);fill:#606DB3;}
	.st20{clip-path:url(#SVGID_2_);fill:#616DB3;}
	.st21{clip-path:url(#SVGID_2_);fill:#636DB3;}
	.st22{clip-path:url(#SVGID_2_);fill:#646DB3;}
	.st23{clip-path:url(#SVGID_2_);fill:#656EB3;}
	.st24{clip-path:url(#SVGID_2_);fill:#666EB3;}
	.st25{clip-path:url(#SVGID_2_);fill:#676EB3;}
	.st26{clip-path:url(#SVGID_2_);fill:#696EB3;}
	.st27{clip-path:url(#SVGID_2_);fill:#6A6EB3;}
	.st28{clip-path:url(#SVGID_2_);fill:#6B6EB3;}
	.st29{clip-path:url(#SVGID_2_);fill:#6C6FB3;}
	.st30{clip-path:url(#SVGID_2_);fill:#6D6FB3;}
	.st31{clip-path:url(#SVGID_2_);fill:#6E6FB3;}
	.st32{clip-path:url(#SVGID_2_);fill:#6F6FB3;}
	.st33{clip-path:url(#SVGID_2_);fill:#706FB4;}
	.st34{clip-path:url(#SVGID_2_);fill:#716FB4;}
	.st35{clip-path:url(#SVGID_2_);fill:#7270B4;}
	.st36{clip-path:url(#SVGID_2_);fill:#7370B4;}
	.st37{clip-path:url(#SVGID_2_);fill:#7470B4;}
	.st38{clip-path:url(#SVGID_2_);fill:#7570B4;}
	.st39{clip-path:url(#SVGID_2_);fill:#7670B4;}
	.st40{clip-path:url(#SVGID_2_);fill:#7770B4;}
	.st41{clip-path:url(#SVGID_2_);fill:#7871B4;}
	.st42{clip-path:url(#SVGID_2_);fill:#7971B4;}
	.st43{clip-path:url(#SVGID_2_);fill:#7A71B4;}
	.st44{clip-path:url(#SVGID_2_);fill:#7B71B4;}
	.st45{clip-path:url(#SVGID_2_);fill:#7C71B4;}
	.st46{clip-path:url(#SVGID_2_);fill:#7D71B4;}
	.st47{clip-path:url(#SVGID_2_);fill:#7E72B4;}
	.st48{clip-path:url(#SVGID_2_);fill:#7F72B4;}
	.st49{clip-path:url(#SVGID_2_);fill:#8072B4;}
	.st50{clip-path:url(#SVGID_2_);fill:#8172B4;}
	.st51{clip-path:url(#SVGID_2_);fill:#8272B4;}
	.st52{clip-path:url(#SVGID_2_);fill:#8372B4;}
	.st53{clip-path:url(#SVGID_2_);fill:#8373B4;}
	.st54{clip-path:url(#SVGID_2_);fill:#8473B4;}
	.st55{clip-path:url(#SVGID_2_);fill:#8573B4;}
	.st56{clip-path:url(#SVGID_2_);fill:#8673B4;}
	.st57{clip-path:url(#SVGID_2_);fill:#8773B4;}
	.st58{clip-path:url(#SVGID_2_);fill:#8873B4;}
	.st59{clip-path:url(#SVGID_2_);fill:#8874B4;}
	.st60{clip-path:url(#SVGID_2_);fill:#8974B4;}
	.st61{clip-path:url(#SVGID_2_);fill:#8A74B5;}
	.st62{clip-path:url(#SVGID_2_);fill:#8B74B5;}
	.st63{clip-path:url(#SVGID_2_);fill:#8C74B5;}
	.st64{clip-path:url(#SVGID_2_);fill:#8D75B5;}
	.st65{clip-path:url(#SVGID_2_);fill:#8E75B5;}
	.st66{clip-path:url(#SVGID_2_);fill:#8F75B5;}
	.st67{clip-path:url(#SVGID_2_);fill:#9075B5;}
	.st68{clip-path:url(#SVGID_2_);fill:#9175B5;}
	.st69{clip-path:url(#SVGID_2_);fill:#9275B5;}
	.st70{clip-path:url(#SVGID_2_);fill:#9276B5;}
	.st71{clip-path:url(#SVGID_2_);fill:#9376B5;}
	.st72{clip-path:url(#SVGID_2_);fill:#9476B5;}
	.st73{clip-path:url(#SVGID_2_);fill:#9576B5;}
	.st74{clip-path:url(#SVGID_2_);fill:#9676B5;}
	.st75{clip-path:url(#SVGID_2_);fill:#9776B5;}
	.st76{clip-path:url(#SVGID_2_);fill:#9777B5;}
	.st77{clip-path:url(#SVGID_2_);fill:#9877B5;}
	.st78{clip-path:url(#SVGID_2_);fill:#9977B5;}
	.st79{clip-path:url(#SVGID_2_);fill:#9A77B5;}
	.st80{clip-path:url(#SVGID_2_);fill:#9B77B5;}
	.st81{clip-path:url(#SVGID_2_);fill:#9C78B5;}
	.st82{clip-path:url(#SVGID_2_);fill:#9D78B5;}
	.st83{clip-path:url(#SVGID_2_);fill:#9E78B5;}
	.st84{clip-path:url(#SVGID_2_);fill:#9F78B5;}
	.st85{clip-path:url(#SVGID_2_);fill:#A078B5;}
	.st86{clip-path:url(#SVGID_2_);fill:#A079B5;}
	.st87{clip-path:url(#SVGID_2_);fill:#A179B5;}
	.st88{clip-path:url(#SVGID_2_);fill:#A179B6;}
	.st89{clip-path:url(#SVGID_2_);fill:#A279B6;}
	.st90{clip-path:url(#SVGID_2_);fill:#A379B6;}
	.st91{clip-path:url(#SVGID_2_);fill:#A479B6;}
	.st92{clip-path:url(#SVGID_2_);fill:#A47AB6;}
	.st93{clip-path:url(#SVGID_2_);fill:#A57AB6;}
	.st94{fill:url(#SVGID_3_);}
	.st95{fill:none;stroke:#95CBEE;stroke-width:4;stroke-linecap:round;stroke-linejoin:round;stroke-miterlimit:10;}
	.st96{fill-rule:evenodd;clip-rule:evenodd;fill:#95CBEE;}
	.st97{fill:url(#SVGID_4_);}
	.st98{fill:url(#SVGID_5_);}
	.st99{fill:url(#SVGID_6_);}
	.st100{fill:url(#SVGID_7_);}
	.st101{fill:url(#SVGID_8_);}
	.st102{fill:url(#SVGID_9_);}
	.st103{fill:url(#SVGID_10_);}
	.st104{fill:url(#SVGID_11_);}
	.st105{fill:url(#SVGID_12_);}
	.st106{fill:url(#SVGID_13_);}
	.st107{fill:url(#SVGID_14_);}
	.st108{fill:url(#SVGID_15_);}
	.st109{fill:url(#SVGID_16_);}
	.st110{fill:url(#SVGID_17_);}
	.st111{fill:url(#SVGID_18_);}
	.st112{fill:url(#SVGID_19_);}
	.st113{fill:url(#SVGID_20_);}
	.st114{fill:url(#SVGID_21_);}
	.st115{fill:url(#SVGID_22_);}
	.st116{fill:url(#SVGID_23_);}
	.st117{fill:url(#SVGID_24_);}
</style>
<polygon class="st0" points="182.5,116.8 155.7,115.3 154.3,63.4 182.5,63.4 "/>
<polygon class="st0" points="47.7,107.7 22.9,108.2 21.4,56.3 47.3,56.3 "/>
<linearGradient id="SVGID_2_" gradientUnits="userSpaceOnUse" x1="19.1124" y1="98.6443" x2="185.0967" y2="98.6443">
	<stop  offset="0.3102" style="stop-color:#466AB2"/>
	<stop  offset="0.5215" style="stop-color:#716FB4"/>
	<stop  offset="0.7256" style="stop-color:#8E75B5"/>
	<stop  offset="0.8921" style="stop-color:#9F78B5"/>
	<stop  offset="1" style="stop-color:#A57AB6"/>
</linearGradient>
<path style="fill:url(#SVGID_2_);" d="M176.9,59.9h-16c-4.5,0-8.1,3.7-8.1,8.1v2.2c-4-1.5-24.1-8.9-35.8-14.2
	c-11.9-5.3-19.6-3.7-28.1,3H51.2c-0.7-3.7-4-6.6-8-6.6h-16c-4.5,0-8.1,3.7-8.1,8.1v42.8c0,4.5,3.7,8.1,8.1,8.1h16
	c3.1,0,5.9-1.8,7.2-4.4c0.7,0.8,1.5,1.6,2.3,2.4c2.9,3.1,6,6.2,8,8c12.3,10.3,27,21.4,30,23.3c2.4,1.6,7.7,3.8,11.7,3.8
	c3.2,0,5.7-0.7,7.5-2.2c2.3,0.9,5,0.9,7.5-0.1c3-1.2,5.5-3.5,6.9-6.3c2.6,0.6,5.6,0.2,8.3-1.2c2.6-1.3,4.6-3.4,5.5-5.7
	c2.6,0.1,5.3-0.8,7.6-2.7c3-2.6,4.3-6.3,3.6-10l4.1-2.8c1.2,3.1,4.1,5.3,7.6,5.3h16c4.5,0,8.1-3.7,8.1-8.1V68
	C185.1,63.5,181.4,59.9,176.9,59.9z M43.2,106.8h-16c-1.8,0-3.3-1.5-3.3-3.3V60.7c0-1.8,1.5-3.3,3.3-3.3h16c1.8,0,3.3,1.5,3.3,3.3
	v40.6c-0.1,0.4-0.1,0.9,0,1.3v0.9C46.5,105.3,45.1,106.8,43.2,106.8z M141.4,121.5c-1.3,1.1-3,1.4-4,0.8c-2.5-2-12.9-12.7-19.3-19.4
	c-1.3-1.3-3.3-1.4-4.7-0.1c-1.3,1.3-1.4,3.3-0.1,4.7c1.5,1.6,13.8,14.4,18.8,18.9c-0.4,1.4-1.8,2.3-2.4,2.6
	c-2.1,1.1-4.3,0.9-5.1,0.1c-0.1-0.1-0.1-0.1-0.2-0.2c-3.9-3.2-13.9-13.7-16.1-16.1c-1.2-1.3-3.3-1.4-4.7-0.2
	c-1.3,1.2-1.4,3.3-0.2,4.7c0.1,0.1,9.8,10.6,15.2,15.5c-0.6,1.6-1.9,2.9-3.5,3.5c-1,0.4-2.5,0.6-3.8-0.6c0,0,0,0,0,0
	c0,0-0.1-0.1-0.1-0.1c-4.7-4-14.3-14.2-16.2-16.2c-1.2-1.3-3.3-1.4-4.7-0.2c-1.3,1.2-1.4,3.3-0.2,4.7c2.2,2.4,8.9,9.4,13.9,14.1
	c-0.4,0.1-0.9,0.1-1.6,0.1c-2.2,0-6.1-1.5-8.1-2.8c-2.3-1.5-16.8-12.3-29.3-22.8c-1.8-1.5-4.8-4.7-7.5-7.5c-2.4-2.5-4.6-4.8-5.7-5.7
	c-0.2-0.1-0.3-0.2-0.5-0.3V65.7h30.3c-4.5,4.5-10.6,13.6-9,20.3c0.7,2.8,2.7,5,5.7,5.9c7.5,2.5,14.3,0.1,19.4-6.6
	c2.1-0.3,3.2-0.8,4.9-1.6c0.6-0.3,1.3-0.6,2.3-1c3.8,3.5,8.9,7.7,14.2,12c9.7,7.8,20.7,16.7,23.1,21.9
	C143.6,119.1,142.3,120.7,141.4,121.5z M146.3,110.5c-4.6-6.1-13.9-13.6-22.9-20.9c-6-4.8-11.6-9.4-15.2-13
	c-0.9-0.9-2.3-1.2-3.4-0.8c-2.2,0.8-3.6,1.4-4.7,1.9c-1.6,0.7-2.2,1-4.4,1.2c-1,0.1-1.9,0.6-2.4,1.4c-4.7,7-9.5,6.4-12.7,5.3
	c-1-0.3-1.2-0.8-1.3-1.2c-0.7-2.9,2.8-9.6,7.3-14.1c10.7-10.7,16.2-13.4,27.9-8.2c13.2,5.9,36.9,14.6,37,14.6c0.5,0.2,1,0.2,1.5,0.2
	v29.4c-0.4,0.1-0.8,0.2-1.1,0.5L146.3,110.5z M180.2,110.9c0,1.8-1.5,3.3-3.3,3.3h-16c-1.8,0-3.3-1.5-3.3-3.3V68
	c0-1.8,1.5-3.3,3.3-3.3h16c1.8,0,3.3,1.5,3.3,3.3V110.9z"/>
</svg>
