<?xml version="1.0" encoding="utf-8"?>
<!-- Generator: Adobe Illustrator 22.1.0, SVG Export Plug-In . SVG Version: 6.00 Build 0)  -->
<svg version="1.1" id="Layer_1" xmlns="http://www.w3.org/2000/svg" xmlns:xlink="http://www.w3.org/1999/xlink" x="0px" y="0px"
	 viewBox="0 0 200 170" style="enable-background:new 0 0 200 170;" xml:space="preserve">
<style type="text/css">
	.st0{fill:#95CBEE;}
	.st1{clip-path:url(#SVGID_2_);fill:#466AB2;}
	.st2{clip-path:url(#SVGID_2_);fill:#486AB2;}
	.st3{clip-path:url(#SVGID_2_);fill:#496AB2;}
	.st4{clip-path:url(#SVGID_2_);fill:#4B6AB2;}
	.st5{clip-path:url(#SVGID_2_);fill:#4C6AB2;}
	.st6{clip-path:url(#SVGID_2_);fill:#4E6BB3;}
	.st7{clip-path:url(#SVGID_2_);fill:#506BB3;}
	.st8{clip-path:url(#SVGID_2_);fill:#516BB3;}
	.st9{clip-path:url(#SVGID_2_);fill:#536BB3;}
	.st10{clip-path:url(#SVGID_2_);fill:#546BB3;}
	.st11{clip-path:url(#SVGID_2_);fill:#556BB3;}
	.st12{clip-path:url(#SVGID_2_);fill:#576CB3;}
	.st13{clip-path:url(#SVGID_2_);fill:#586CB3;}
	.st14{clip-path:url(#SVGID_2_);fill:#5A6CB3;}
	.st15{clip-path:url(#SVGID_2_);fill:#5B6CB3;}
	.st16{clip-path:url(#SVGID_2_);fill:#5C6CB3;}
	.st17{clip-path:url(#SVGID_2_);fill:#5E6CB3;}
	.st18{clip-path:url(#SVGID_2_);fill:#5F6DB3;}
	.st19{clip-path:url(#SVGID_2_);fill:#606DB3;}
	.st20{clip-path:url(#SVGID_2_);fill:#616DB3;}
	.st21{clip-path:url(#SVGID_2_);fill:#636DB3;}
	.st22{clip-path:url(#SVGID_2_);fill:#646DB3;}
	.st23{clip-path:url(#SVGID_2_);fill:#656EB3;}
	.st24{clip-path:url(#SVGID_2_);fill:#666EB3;}
	.st25{clip-path:url(#SVGID_2_);fill:#676EB3;}
	.st26{clip-path:url(#SVGID_2_);fill:#696EB3;}
	.st27{clip-path:url(#SVGID_2_);fill:#6A6EB3;}
	.st28{clip-path:url(#SVGID_2_);fill:#6B6EB3;}
	.st29{clip-path:url(#SVGID_2_);fill:#6C6FB3;}
	.st30{clip-path:url(#SVGID_2_);fill:#6D6FB3;}
	.st31{clip-path:url(#SVGID_2_);fill:#6E6FB3;}
	.st32{clip-path:url(#SVGID_2_);fill:#6F6FB3;}
	.st33{clip-path:url(#SVGID_2_);fill:#706FB4;}
	.st34{clip-path:url(#SVGID_2_);fill:#716FB4;}
	.st35{clip-path:url(#SVGID_2_);fill:#7270B4;}
	.st36{clip-path:url(#SVGID_2_);fill:#7370B4;}
	.st37{clip-path:url(#SVGID_2_);fill:#7470B4;}
	.st38{clip-path:url(#SVGID_2_);fill:#7570B4;}
	.st39{clip-path:url(#SVGID_2_);fill:#7670B4;}
	.st40{clip-path:url(#SVGID_2_);fill:#7770B4;}
	.st41{clip-path:url(#SVGID_2_);fill:#7871B4;}
	.st42{clip-path:url(#SVGID_2_);fill:#7971B4;}
	.st43{clip-path:url(#SVGID_2_);fill:#7A71B4;}
	.st44{clip-path:url(#SVGID_2_);fill:#7B71B4;}
	.st45{clip-path:url(#SVGID_2_);fill:#7C71B4;}
	.st46{clip-path:url(#SVGID_2_);fill:#7D71B4;}
	.st47{clip-path:url(#SVGID_2_);fill:#7E72B4;}
	.st48{clip-path:url(#SVGID_2_);fill:#7F72B4;}
	.st49{clip-path:url(#SVGID_2_);fill:#8072B4;}
	.st50{clip-path:url(#SVGID_2_);fill:#8172B4;}
	.st51{clip-path:url(#SVGID_2_);fill:#8272B4;}
	.st52{clip-path:url(#SVGID_2_);fill:#8372B4;}
	.st53{clip-path:url(#SVGID_2_);fill:#8373B4;}
	.st54{clip-path:url(#SVGID_2_);fill:#8473B4;}
	.st55{clip-path:url(#SVGID_2_);fill:#8573B4;}
	.st56{clip-path:url(#SVGID_2_);fill:#8673B4;}
	.st57{clip-path:url(#SVGID_2_);fill:#8773B4;}
	.st58{clip-path:url(#SVGID_2_);fill:#8873B4;}
	.st59{clip-path:url(#SVGID_2_);fill:#8874B4;}
	.st60{clip-path:url(#SVGID_2_);fill:#8974B4;}
	.st61{clip-path:url(#SVGID_2_);fill:#8A74B5;}
	.st62{clip-path:url(#SVGID_2_);fill:#8B74B5;}
	.st63{clip-path:url(#SVGID_2_);fill:#8C74B5;}
	.st64{clip-path:url(#SVGID_2_);fill:#8D75B5;}
	.st65{clip-path:url(#SVGID_2_);fill:#8E75B5;}
	.st66{clip-path:url(#SVGID_2_);fill:#8F75B5;}
	.st67{clip-path:url(#SVGID_2_);fill:#9075B5;}
	.st68{clip-path:url(#SVGID_2_);fill:#9175B5;}
	.st69{clip-path:url(#SVGID_2_);fill:#9275B5;}
	.st70{clip-path:url(#SVGID_2_);fill:#9276B5;}
	.st71{clip-path:url(#SVGID_2_);fill:#9376B5;}
	.st72{clip-path:url(#SVGID_2_);fill:#9476B5;}
	.st73{clip-path:url(#SVGID_2_);fill:#9576B5;}
	.st74{clip-path:url(#SVGID_2_);fill:#9676B5;}
	.st75{clip-path:url(#SVGID_2_);fill:#9776B5;}
	.st76{clip-path:url(#SVGID_2_);fill:#9777B5;}
	.st77{clip-path:url(#SVGID_2_);fill:#9877B5;}
	.st78{clip-path:url(#SVGID_2_);fill:#9977B5;}
	.st79{clip-path:url(#SVGID_2_);fill:#9A77B5;}
	.st80{clip-path:url(#SVGID_2_);fill:#9B77B5;}
	.st81{clip-path:url(#SVGID_2_);fill:#9C78B5;}
	.st82{clip-path:url(#SVGID_2_);fill:#9D78B5;}
	.st83{clip-path:url(#SVGID_2_);fill:#9E78B5;}
	.st84{clip-path:url(#SVGID_2_);fill:#9F78B5;}
	.st85{clip-path:url(#SVGID_2_);fill:#A078B5;}
	.st86{clip-path:url(#SVGID_2_);fill:#A079B5;}
	.st87{clip-path:url(#SVGID_2_);fill:#A179B5;}
	.st88{clip-path:url(#SVGID_2_);fill:#A179B6;}
	.st89{clip-path:url(#SVGID_2_);fill:#A279B6;}
	.st90{clip-path:url(#SVGID_2_);fill:#A379B6;}
	.st91{clip-path:url(#SVGID_2_);fill:#A479B6;}
	.st92{clip-path:url(#SVGID_2_);fill:#A47AB6;}
	.st93{clip-path:url(#SVGID_2_);fill:#A57AB6;}
	.st94{fill:url(#SVGID_3_);}
	.st95{fill:none;stroke:#95CBEE;stroke-width:4;stroke-linecap:round;stroke-linejoin:round;stroke-miterlimit:10;}
	.st96{fill-rule:evenodd;clip-rule:evenodd;fill:#95CBEE;}
	.st97{fill:url(#SVGID_4_);}
	.st98{fill:url(#SVGID_5_);}
	.st99{fill:url(#SVGID_6_);}
	.st100{fill:url(#SVGID_7_);}
	.st101{fill:url(#SVGID_8_);}
	.st102{fill:url(#SVGID_9_);}
	.st103{fill:url(#SVGID_10_);}
	.st104{fill:url(#SVGID_11_);}
	.st105{fill:url(#SVGID_12_);}
	.st106{fill:url(#SVGID_13_);}
	.st107{fill:url(#SVGID_14_);}
	.st108{fill:url(#SVGID_15_);}
	.st109{fill:url(#SVGID_16_);}
	.st110{fill:url(#SVGID_17_);}
	.st111{fill:url(#SVGID_18_);}
	.st112{fill:url(#SVGID_19_);}
	.st113{fill:url(#SVGID_20_);}
	.st114{fill:url(#SVGID_21_);}
	.st115{fill:url(#SVGID_22_);}
	.st116{fill:url(#SVGID_23_);}
	.st117{fill:url(#SVGID_24_);}
</style>
<linearGradient id="SVGID_2_" gradientUnits="userSpaceOnUse" x1="19.8921" y1="82.7911" x2="180.1079" y2="82.7911">
	<stop  offset="0.3102" style="stop-color:#466AB2"/>
	<stop  offset="0.5215" style="stop-color:#716FB4"/>
	<stop  offset="0.7256" style="stop-color:#8E75B5"/>
	<stop  offset="0.8921" style="stop-color:#9F78B5"/>
	<stop  offset="1" style="stop-color:#A57AB6"/>
</linearGradient>
<path style="fill:url(#SVGID_2_);" d="M157.3,127h-3.3c-1.5,0-2.8-1.3-2.8-2.8c0-1.5,1.3-2.8,2.8-2.8h3.3c4.6,0,8.9-1.8,12.2-5.1
	c3.3-3.3,5.1-7.6,5.1-12.2c0-8.6-6.5-16-15-17.1c-0.8-0.1-1.5-0.6-2-1.2c-0.4-0.7-0.6-1.5-0.4-2.3c0.5-1.9,0.8-3.8,0.8-5.8
	c0-12.2-9.9-22.1-22.1-22.1c-5.6,0-11,2.1-15.1,5.9c-0.7,0.7-1.7,0.9-2.7,0.6c-0.9-0.3-1.7-1-1.9-1.9c-2.7-9.5-11.6-16.2-21.5-16.2
	c-11.8,0-21.6,9.2-22.3,20.9c-0.1,0.8-0.5,1.6-1.1,2.1c-0.7,0.5-1.5,0.7-2.3,0.5c-1.1-0.2-2.3-0.4-3.5-0.4c-9,0-16.3,7.3-16.3,16.3
	c0,0.1,0,0.2,0,0.3c0.1,0.8-0.2,1.5-0.7,2.1c-0.5,0.6-1.3,0.9-2,0.9h-3.6c-4.6,0-8.9,1.8-12.2,5.1c-3.3,3.3-5.1,7.6-5.1,12.2
	c0,9.5,7.7,17.3,17.3,17.3h25.5c1.5,0,2.8,1.3,2.8,2.8c0,1.5-1.3,2.8-2.8,2.8H42.7c-12.6,0-22.9-10.3-22.9-22.9
	c0-6.1,2.4-11.8,6.7-16.1c4.3-4.3,10.1-6.7,16.1-6.7h0.9c1.1-11,10.5-19.6,21.8-19.6c0.5,0,1.1,0,1.6,0.1
	c2.3-13.2,13.8-23.2,27.6-23.2c11,0,21,6.6,25.5,16.4c4.6-3.2,10-4.9,15.7-4.9c15.3,0,27.7,12.4,27.7,27.7c0,1.5-0.1,2.9-0.3,4.3
	c9.8,2.6,16.9,11.7,16.9,22.1c0,6.1-2.4,11.8-6.7,16.1C169.1,124.6,163.3,127,157.3,127z"/>
<path class="st95" d="M133.2,131.7H90.2c-6.6,0-12-5.4-12-12v-0.4c0-6.6,5.4-12,12-12h42.9c6.6,0,12,5.4,12,12v0.4
	C145.2,126.3,139.8,131.7,133.2,131.7z"/>
<path class="st95" d="M133.2,104.9H90.2c-6.6,0-12-5.4-12-12v-0.4c0-6.6,5.4-12,12-12h42.9c6.6,0,12,5.4,12,12v0.4
	C145.2,99.5,139.8,104.9,133.2,104.9z"/>
<g>
	<circle class="st0" cx="134.7" cy="92.7" r="2.4"/>
	<circle class="st0" cx="127.3" cy="92.7" r="2.4"/>
	<circle class="st0" cx="119.8" cy="92.7" r="2.4"/>
</g>
<path class="st0" d="M108.3,95.1H88.9c-1.3,0-2.4-1.1-2.4-2.4v0c0-1.3,1.1-2.4,2.4-2.4h19.5c1.3,0,2.4,1.1,2.4,2.4v0
	C110.8,94,109.7,95.1,108.3,95.1z"/>
<g>
	<circle class="st0" cx="134.7" cy="119.5" r="2.4"/>
	<circle class="st0" cx="127.3" cy="119.5" r="2.4"/>
	<circle class="st0" cx="119.8" cy="119.5" r="2.4"/>
</g>
<path class="st0" d="M108.3,121.9H88.9c-1.3,0-2.4-1.1-2.4-2.4v0c0-1.3,1.1-2.4,2.4-2.4h19.5c1.3,0,2.4,1.1,2.4,2.4v0
	C110.8,120.8,109.7,121.9,108.3,121.9z"/>
</svg>
