<?xml version="1.0" encoding="UTF-8"?>
<svg width="44px" height="55px" viewBox="0 0 44 55" version="1.1" xmlns="http://www.w3.org/2000/svg" xmlns:xlink="http://www.w3.org/1999/xlink">
    <!-- Generator: Sketch 51.2 (57519) - http://www.bohemiancoding.com/sketch -->
    <title>noun_511208_cc</title>
    <desc>Created with Sketch.</desc>
    <defs></defs>
    <g id="Home" stroke="none" stroke-width="1" fill="none" fill-rule="evenodd">
        <g id="01b_GBM_Home_subnav_desktop" transform="translate(-1038.000000, -1303.000000)" fill="#141B4D" fill-rule="nonzero">
            <g id="Solutions" transform="translate(86.000000, 960.000000)">
                <g transform="translate(152.000000, 195.000000)" id="Digital-Infrastructu">
                    <g transform="translate(742.000000, 148.000000)">
                        <g id="noun_511208_cc" transform="translate(58.000000, 0.000000)">
                            <g id="Group">
                                <path d="M9.58064516,12.3565714 L22.3534194,12.3565714 C22.9410323,12.3565714 23.4179355,11.8688503 23.4179355,11.2662857 C23.4179355,10.6637211 22.9410323,10.176 22.3534194,10.176 L9.58064516,10.176 C8.99303226,10.176 8.51612903,10.6637211 8.51612903,11.2662857 C8.51612903,11.8688503 8.99303226,12.3565714 9.58064516,12.3565714 Z" id="Shape"></path>
                                <path d="M43.9985806,14.5371429 C43.9985806,12.9380571 43.0681935,10.7327726 41.9305806,9.636672 L34.0006452,1.99304229 C32.8644516,0.896941714 30.6573548,0 29.0953548,0 L2.83870968,0 C1.27670968,0 0,1.30834286 0,2.90742857 L0,51.6068571 C0,53.2059429 1.27670968,54.5142857 2.83870968,54.5142857 L41.1612903,54.5142857 C42.721871,54.5142857 44,53.2059429 44,51.6068571 L43.9985806,14.5371429 Z M40.4721935,11.2248549 C40.7454194,11.4879771 41.0158065,11.8979246 41.2457419,12.3565714 L32.9985806,12.3565714 C32.5117419,12.3565714 32.0724516,12.1545051 31.7467097,11.8223314 C31.4209677,11.4879771 31.2243871,11.0387794 31.2243871,10.5394286 L31.2243871,2.74533943 C31.748129,2.986656 32.2292903,3.27812571 32.5422581,3.58049829 L40.4721935,11.2248549 Z M41.1612903,52.3337143 L2.83870968,52.3337143 C2.45335484,52.3337143 2.12903226,52.0008137 2.12903226,51.6068571 L2.12903226,2.90742857 C2.12903226,2.513472 2.45335484,2.18057143 2.83870968,2.18057143 L29.0953548,2.18057143 L29.0953548,10.5394286 C29.0996129,12.74544 30.8447097,14.5327817 32.9985806,14.5371429 L41.8695484,14.5371429 L41.8709677,51.6068571 C41.8709677,52.0008137 41.5452258,52.3337143 41.1612903,52.3337143 Z" id="Shape"></path>
                                <path d="M23.2559355,18.5142857 C17.4245161,18.5142857 12.4958065,22.4116937 10.7854839,27.7977051 L10.4100645,27.6530606 C10.2489677,27.5920046 10.0871613,27.5622034 9.92890323,27.5622034 C9.36187097,27.5622034 8.84522581,27.9343543 8.6663871,28.531104 C8.6663871,28.531104 8,30.769824 8,32.7585051 C7.99929032,40.9494583 14.4793548,47.5885714 22.4767097,47.5885714 C24.6873548,47.5885714 27.3103226,46.6422034 27.3103226,46.6422034 C28.0476774,46.3769006 28.3861935,45.5635474 28.0632903,44.8352366 L27.9249032,44.5219611 C32.8692258,42.594336 36.3856774,37.7025874 36.3856774,31.9611429 C36.3849677,24.5348434 30.5095484,18.5142857 23.2559355,18.5142857 Z M23.2559355,20.6948571 C25.905871,20.6948571 28.3400645,21.6601234 30.242,23.265024 L21.662,32.0527269 C21.5037419,31.9524206 21.3461935,31.8651977 21.1936129,31.8070491 L12.7754194,28.5645394 C14.1855484,24.0085989 18.3463871,20.6948571 23.2559355,20.6948571 Z M22.4767097,45.408 C15.6666452,45.408 10.1269032,39.7334263 10.1269032,32.759232 C10.1269032,31.8019611 10.3234839,30.7334811 10.4888387,30.0131657 L20.4420645,33.8473371 C20.6556774,33.93456 21.070129,34.331424 21.1680645,34.5429394 L25.7355484,44.8577691 C24.8363871,45.1121691 23.5362581,45.408 22.4767097,45.408 Z M27.0385161,42.5201966 L23.111871,33.6503589 L31.7458065,24.8059611 C33.3134839,26.7532114 34.2559355,29.2463314 34.2559355,31.960416 C34.2559355,36.8100069 31.2426452,40.9378286 27.0385161,42.5201966 Z" id="Shape"></path>
                            </g>
                        </g>
                    </g>
                </g>
            </g>
        </g>
    </g>
</svg>