<?xml version="1.0" encoding="UTF-8"?>
<svg width="56px" height="56px" viewBox="0 0 56 56" version="1.1" xmlns="http://www.w3.org/2000/svg" xmlns:xlink="http://www.w3.org/1999/xlink">
    <!-- Generator: Sketch 51.2 (57519) - http://www.bohemiancoding.com/sketch -->
    <title>labyrinth</title>
    <desc>Created with Sketch.</desc>
    <defs></defs>
    <g id="Solutions_Landing_Page" stroke="none" stroke-width="1" fill="none" fill-rule="evenodd">
        <g id="03_GBM_Solutions_Landing_Page_desktop" transform="translate(-136.000000, -121.000000)" fill="#FFFFFF" fill-rule="nonzero">
            <g id="Header" transform="translate(0.000000, -2.000000)">
                <g id="labyrinth" transform="translate(136.000000, 123.000000)">
                    <path d="M28.9332969,29.8667031 C28.4181406,29.8667031 28,30.2848437 28,30.8 L28,42 C28,42.5151562 28.4181406,42.9332969 28.9332969,42.9332969 L38.2665937,42.9332969 C38.78175,42.9332969 39.1998906,42.5151563 39.1998906,42 C39.1998906,41.4848437 38.78175,41.0667031 38.2665937,41.0667031 L29.8665937,41.0667031 L29.8665937,30.8 C29.8667031,30.2848437 29.4485625,29.8667031 28.9332969,29.8667031 Z" id="Shape"></path>
                    <path d="M18.6667031,36.4 L18.6667031,25.2 C18.6667031,24.6848437 18.2485625,24.2667031 17.7334063,24.2667031 L6.53340625,24.2667031 C6.01825,24.2667031 5.60010937,24.6848438 5.60010937,25.2 C5.60010937,25.7151562 6.01825,26.1332969 6.53340625,26.1332969 L16.8,26.1332969 L16.8,35.4665937 L12.1332969,35.4665937 L6.53329687,35.4665937 C6.01814062,35.4665937 5.6,35.8847344 5.6,36.3998906 L5.6,47.5998906 C5.6,48.1150469 6.01814062,48.5331875 6.53329687,48.5331875 C7.04845312,48.5331875 7.46659375,48.1150469 7.46659375,47.5998906 L7.46659375,37.3331875 L11.2,37.3331875 L11.2,54.1331875 L3.73329687,54.1331875 C2.70385938,54.1331875 1.86659375,53.2960312 1.86659375,52.2664844 L1.86659375,31.7332969 L12.1332969,31.7332969 C12.6484531,31.7332969 13.0665938,31.3151563 13.0665938,30.8 C13.0665938,30.2848437 12.6484531,29.8667031 12.1332969,29.8667031 L1.86670312,29.8667031 L1.86670312,20.5334062 L12.1334062,20.5334062 C12.6485625,20.5334062 13.0667031,20.1152656 13.0667031,19.6001094 C13.0667031,19.0849531 12.6485625,18.6668125 12.1334062,18.6668125 L7.46670312,18.6668125 L7.46670312,12.1335156 C7.46670312,11.6183594 7.0485625,11.2002187 6.53340625,11.2002187 C6.01825,11.2002187 5.60010937,11.6183594 5.60010937,12.1335156 L5.60010937,18.6668125 L1.86670312,18.6668125 L1.86670312,3.73329688 C1.86670312,2.70385938 2.70385937,1.86659375 3.73340625,1.86659375 L5.6,1.86659375 L5.6,6.53329688 C5.6,7.04845312 6.01814063,7.46659375 6.53329688,7.46659375 L11.2,7.46659375 L11.2,14 C11.2,14.5151563 11.6181406,14.9332969 12.1332969,14.9332969 C12.6484531,14.9332969 13.0665938,14.5151562 13.0665938,14 L13.0665938,6.53329687 C13.0665938,6.01814062 12.6484531,5.6 12.1332969,5.6 L7.46670312,5.6 L7.46670312,1.86670312 L33.6,1.86670312 L33.6,18.6667031 L18.6667031,18.6667031 L18.6667031,7.46670312 L28,7.46670312 L28,13.0667031 L24.2667031,13.0667031 L24.2667031,12.1334063 C24.2667031,11.61825 23.8485625,11.2001094 23.3334062,11.2001094 C22.81825,11.2001094 22.4001094,11.61825 22.4001094,12.1334063 L22.4001094,14 C22.4001094,14.5151563 22.81825,14.9332969 23.3334062,14.9332969 L28.9334062,14.9332969 C29.4485625,14.9332969 29.8667031,14.5151562 29.8667031,14 L29.8667031,6.53329687 C29.8667031,6.01814062 29.4485625,5.6 28.9334062,5.6 L17.7334062,5.6 C17.21825,5.6 16.8001094,6.01814062 16.8001094,6.53329687 L16.8001094,19.6 C16.8001094,20.1151562 17.21825,20.5332969 17.7334062,20.5332969 L43.8667031,20.5332969 C44.3818594,20.5332969 44.8,20.1151562 44.8,19.6 C44.8,19.0848438 44.3818594,18.6667031 43.8667031,18.6667031 L35.4667031,18.6667031 L35.4667031,0.933296875 C35.4667031,0.418140625 35.0485625,0 34.5334062,0 L3.73340625,0 C1.67442187,0 0,1.67442187 0,3.73329688 L0,52.2665937 C0,54.3255781 1.67442187,56 3.73329687,56 L12.1332969,56 C12.6484531,56 13.0665937,55.5818594 13.0665937,55.0667031 L13.0665937,37.3332969 L17.7332969,37.3332969 C18.2485625,37.3332969 18.6667031,36.9151562 18.6667031,36.4 Z" id="Shape"></path>
                    <path d="M40.1332969,14.9332969 C40.6484531,14.9332969 41.0665938,14.5151562 41.0665938,14 L41.0665938,6.53329687 C41.0665938,6.01814063 40.6484531,5.6 40.1332969,5.6 C39.6181406,5.6 39.2,6.01814063 39.2,6.53329687 L39.2,14 C39.2,14.5151563 39.6181406,14.9332969 40.1332969,14.9332969 Z" id="Shape"></path>
                    <path d="M49.4667031,37.3332969 C49.9818594,37.3332969 50.4,36.9151563 50.4,36.4 L50.4,25.2 C50.4,24.6848437 49.9818594,24.2667031 49.4667031,24.2667031 L28.9332969,24.2667031 C28.4181406,24.2667031 28,24.6848437 28,25.2 C28,25.7151562 28.4181406,26.1332969 28.9332969,26.1332969 L48.5332969,26.1332969 L48.5332969,36.4 C48.5332969,36.9151562 48.9514375,37.3332969 49.4667031,37.3332969 Z" id="Shape"></path>
                    <path d="M24.2667031,25.2 C24.2667031,24.6848437 23.8485625,24.2667031 23.3334062,24.2667031 C22.81825,24.2667031 22.4001094,24.6848437 22.4001094,25.2 L22.4001094,36.4 C22.4001094,36.9151562 22.81825,37.3332969 23.3334062,37.3332969 C23.8485625,37.3332969 24.2667031,36.9151563 24.2667031,36.4 L24.2667031,25.2 Z" id="Shape"></path>
                    <path d="M52.2667031,0 L40.1332969,0 C39.6181406,0 39.2,0.418140625 39.2,0.933296875 C39.2,1.44845312 39.6181406,1.86659375 40.1332969,1.86659375 L52.2665937,1.86659375 C53.2960312,1.86659375 54.1332969,2.70375 54.1332969,3.73329687 L54.1332969,13.0665937 L46.6665938,13.0665937 L46.6665938,7.46659375 L49.4665938,7.46659375 C49.98175,7.46659375 50.3998906,7.04845312 50.3998906,6.53329687 C50.3998906,6.01814062 49.98175,5.6 49.4665938,5.6 L45.7332969,5.6 C45.2181406,5.6 44.8,6.01814062 44.8,6.53329687 L44.8,14 C44.8,14.5151563 45.2181406,14.9332969 45.7332969,14.9332969 L48.5332969,14.9332969 L48.5332969,19.6 C48.5332969,20.1151562 48.9514375,20.5332969 49.4665938,20.5332969 C49.98175,20.5332969 50.3998906,20.1151562 50.3998906,19.6 L50.3998906,14.9332969 L54.1331875,14.9332969 L54.1331875,41.0665938 L49.4664844,41.0665938 C48.9513281,41.0665938 48.5331875,41.4847344 48.5331875,41.9998906 C48.5331875,42.5150469 48.9513281,42.9331875 49.4664844,42.9331875 L54.1331875,42.9331875 L54.1331875,46.6664844 L44.8,46.6664844 L44.8,30.8 C44.8,30.2848438 44.3818594,29.8667031 43.8667031,29.8667031 L34.5334063,29.8667031 C34.01825,29.8667031 33.6001094,30.2848438 33.6001094,30.8 L33.6001094,36.4 C33.6001094,36.9151562 34.01825,37.3332969 34.5334063,37.3332969 L38.2667031,37.3332969 C38.7818594,37.3332969 39.2,36.9151563 39.2,36.4 C39.2,35.8848438 38.7818594,35.4667031 38.2667031,35.4667031 L35.4667031,35.4667031 L35.4667031,31.7334063 L42.9334063,31.7334063 L42.9334063,47.6 C42.9334063,48.1151562 43.3515469,48.5332969 43.8667031,48.5332969 L54.1334063,48.5332969 L54.1334063,52.2665937 C54.1334063,53.2960312 53.29625,54.1332969 52.2667031,54.1332969 L18.6667031,54.1332969 L18.6667031,48.5332969 L38.2667031,48.5332969 C38.7818594,48.5332969 39.2,48.1151563 39.2,47.6 C39.2,47.0848437 38.7818594,46.6667031 38.2667031,46.6667031 L17.7332969,46.6667031 C17.2181406,46.6667031 16.8,47.0848437 16.8,47.6 L16.8,55.0667031 C16.8,55.5818594 17.2181406,56 17.7332969,56 L52.2665937,56 C54.3255781,56 56,54.3255781 56,52.2667031 L56,3.73329688 C56,1.67442187 54.3255781,0 52.2667031,0 Z" id="Shape"></path>
                    <path d="M23.3332969,41.0667031 L17.7332969,41.0667031 C17.2181406,41.0667031 16.8,41.4848437 16.8,42 C16.8,42.5151562 17.2181406,42.9332969 17.7332969,42.9332969 L23.3332969,42.9332969 C23.8484531,42.9332969 24.2665937,42.5151562 24.2665937,42 C24.2665937,41.4848437 23.8485625,41.0667031 23.3332969,41.0667031 Z" id="Shape"></path>
                </g>
            </g>
        </g>
    </g>
</svg>