<svg xmlns="http://www.w3.org/2000/svg" width="24" height="24" viewBox="0 0 24 24">
    <defs>
        <linearGradient id="a" x1="12.863%" x2="70.533%" y1="90.417%" y2="-14.164%">
            <stop offset="0%" stop-color="#06038D"/>
            <stop offset="46.444%" stop-color="#AA2FAC"/>
            <stop offset="100%" stop-color="#7C3E98"/>
        </linearGradient>
    </defs>
    <g fill="url(#a)" fill-rule="nonzero" transform="translate(-967 -933)">
        <path d="M987.485 936.515A11.921 11.921 0 0 0 979 933a11.921 11.921 0 0 0-8.485 3.515A11.922 11.922 0 0 0 967 945c0 3.205 1.248 6.219 3.515 8.485A11.921 11.921 0 0 0 979 957c3.205 0 6.219-1.248 8.485-3.515A11.922 11.922 0 0 0 991 945c0-3.205-1.248-6.219-3.515-8.485zM979 956.063c-6.1 0-11.063-4.963-11.063-11.063 0-6.1 4.963-11.063 11.063-11.063 6.1 0 11.063 4.963 11.063 11.063 0 6.1-4.963 11.063-11.063 11.063z"/>
        <path d="M989.317 943.058c-.643-3.22-2.894-5.923-6.023-7.23a.484.484 0 0 0-.627.24.454.454 0 0 0 .248.604c2.84 1.186 4.883 3.638 5.466 6.56a.473.473 0 0 0 .558.364.46.46 0 0 0 .378-.538zM981.08 935.248l-.015-.003a.557.557 0 0 0-.233 1.089l.006.001a.55.55 0 0 0 .66-.422.557.557 0 0 0-.419-.665zM975.642 953.33c-2.85-1.161-4.898-3.615-5.48-6.564a.468.468 0 0 0-.55-.362.458.458 0 0 0-.37.535 9.765 9.765 0 0 0 2.106 4.376 10.167 10.167 0 0 0 3.932 2.859.47.47 0 0 0 .613-.245.453.453 0 0 0-.25-.598zM977.18 954.23l-.034-.007a.54.54 0 0 0-.645.42.554.554 0 0 0 .41.661l.038.009a.544.544 0 0 0 .643-.423.554.554 0 0 0-.413-.66zM988.406 946.406a.46.46 0 0 0-.547.36c-.768 3.599-3.551 6.374-7.09 7.07a.47.47 0 0 0-.365.55.463.463 0 0 0 .538.373 9.816 9.816 0 0 0 5.052-2.705 10.167 10.167 0 0 0 2.763-5.089.47.47 0 0 0-.351-.559zM977.596 935.614a.46.46 0 0 0-.538-.373 9.816 9.816 0 0 0-5.052 2.706 10.167 10.167 0 0 0-2.763 5.088.47.47 0 0 0 .45.57c.211 0 .402-.15.449-.37.767-3.6 3.55-6.375 7.09-7.071a.47.47 0 0 0 .364-.55zM979.28 943.605c-.924 0-1.675.75-1.675 1.674 0 .923.75 1.674 1.674 1.674.923 0 1.674-.75 1.674-1.674 0-.923-.75-1.674-1.674-1.674zm0 2.364a.69.69 0 1 1 0-1.38.69.69 0 0 1 0 1.38zM979.28 934.674c-.31 0-.56.236-.56.527v1.18c0 .29.25.526.56.526.307 0 .557-.236.557-.526v-1.18c0-.29-.25-.527-.558-.527zM979.28 952.535c-.31 0-.56.202-.56.45v1.332c0 .249.25.45.56.45.307 0 .557-.201.557-.45v-1.331c0-.25-.25-.451-.558-.451zM988.85 944.72h-1.282c-.262 0-.475.25-.475.56 0 .307.213.557.475.557h1.283c.262 0 .475-.25.475-.558 0-.308-.213-.558-.475-.558zM970.451 944.72h-1.321c-.252 0-.456.25-.456.56 0 .307.204.557.456.557h1.321c.252 0 .456-.25.456-.558 0-.308-.204-.558-.456-.558z"/>
        <path d="M978.211 944.72h-2.329c-.282 0-.51.25-.51.56 0 .307.228.557.51.557h2.329c.282 0 .51-.25.51-.558 0-.308-.228-.558-.51-.558zM979.28 939.14c-.31 0-.56.22-.56.49v4.6c0 .271.25.49.56.49.307 0 .557-.219.557-.49v-4.6c0-.27-.25-.49-.558-.49z"/>
    </g>
</svg>
