<svg width="20px" height="20px" viewBox="0 0 17 13" version="1.1" xmlns="http://www.w3.org/2000/svg">
    <g id="Page-1" stroke="none" stroke-width="1" fill="none" fill-rule="evenodd">
        <g id="noun_filter_787739" fill="#000000" fill-rule="nonzero">
            <g id="Group">
                <path d="M16.8650119,1.31114286 C16.8650119,1.99725397 16.3195952,2.55357143 15.6464762,2.55357143 L1.35352381,2.55357143 C0.680607143,2.55357143 0.134988095,1.99746032 0.134988095,1.31114286 C0.134988095,0.625031746 0.680404762,0.0687142857 1.35352381,0.0687142857 L15.6466786,0.0687142857 C16.3195952,0.0687142857 16.8650119,0.625031746 16.8650119,1.31114286 Z" id="Shape"></path>
                <path d="M14.8412024,6.53239683 C14.8412024,7.21850794 14.2957857,7.7748254 13.6226667,7.7748254 L3.37733333,7.7748254 C2.70441667,7.7748254 2.15879762,7.21871429 2.15879762,6.53239683 C2.15879762,5.84628571 2.70421429,5.28996825 3.37733333,5.28996825 L13.622869,5.28996825 C14.2957857,5.28996825 14.8412024,5.84628571 14.8412024,6.53239683 Z" id="Shape"></path>
                <path d="M11.8054881,11.7534444 C11.8054881,12.4395556 11.2600714,12.995873 10.5869524,12.995873 L6.41304762,12.995873 C5.74013095,12.995873 5.1945119,12.4397619 5.1945119,11.7534444 C5.1945119,11.0673333 5.73992857,10.5110159 6.41304762,10.5110159 L10.5871548,10.5110159 C11.2600714,10.5110159 11.8054881,11.0673333 11.8054881,11.7534444 Z" id="Shape"></path>
            </g>
        </g>
    </g>
</svg>