<svg xmlns="http://www.w3.org/2000/svg" width="24" height="24" viewBox="0 0 24 24">
    <defs>
        <linearGradient id="a" x1="12.863%" x2="70.533%" y1="90.417%" y2="-14.164%">
            <stop offset="0%" stop-color="#06038D"/>
            <stop offset="46.444%" stop-color="#AA2FAC"/>
            <stop offset="100%" stop-color="#7C3E98"/>
        </linearGradient>
    </defs>
    <g fill="url(#a)" fill-rule="nonzero" transform="translate(-240 -933)">
        <path d="M262.773 954.6c-.071 0-.141.006-.21.018a1.63 1.63 0 0 0-1.427-.818 1.63 1.63 0 0 0-1.426.818 1.23 1.23 0 0 0-.21-.018c-.677 0-1.227.538-1.227 1.2 0 .14.03.274.075.4h-1.712v-2.4h2.046c.226 0 .409-.18.409-.4v-16c0-.22-.183-.4-.41-.4H246.41c-.226 0-.409.18-.409.4v19.2c0 .22.183.4.41.4h16.363c.676 0 1.227-.538 1.227-1.2 0-.662-.55-1.2-1.227-1.2zm-6.137-16.8h1.637v2.4h-1.637v-2.4zm0 3.2h1.637v2.4h-1.637V941zm0 3.2h1.637v2.4h-1.637v-2.4zm0 3.2h1.637v2.4h-1.637v-2.4zm0 3.2h1.637v2.4h-1.637v-2.4zm-8.181 5.6h-1.637v-2.4h1.637v2.4zm0-3.2h-1.637v-2.4h1.637v2.4zm0-3.2h-1.637v-2.4h1.637v2.4zm0-3.2h-1.637v-2.4h1.637v2.4zm0-3.2h-1.637V941h1.637v2.4zm0-3.2h-1.637v-2.4h1.637v2.4zm2.454 16h-1.636v-2.4h1.636v2.4zm0-3.2h-1.636v-2.4h1.636v2.4zm0-3.2h-1.636v-2.4h1.636v2.4zm0-3.2h-1.636v-2.4h1.636v2.4zm0-3.2h-1.636V941h1.636v2.4zm0-3.2h-1.636v-2.4h1.636v2.4zm2.455 16h-1.637v-2.4h1.637v2.4zm0-3.2h-1.637v-2.4h1.637v2.4zm0-3.2h-1.637v-2.4h1.637v2.4zm0-3.2h-1.637v-2.4h1.637v2.4zm0-3.2h-1.637V941h1.637v2.4zm0-3.2h-1.637v-2.4h1.637v2.4zm2.454 16h-1.636v-2.4h1.636v2.4zm0-3.2h-1.636v-2.4h1.636v2.4zm0-3.2h-1.636v-2.4h1.636v2.4zm0-3.2h-1.636v-2.4h1.636v2.4zm0-3.2h-1.636V941h1.636v2.4zm0-3.2h-1.636v-2.4h1.636v2.4zm6.955 16H259.5a.405.405 0 0 1-.41-.4.41.41 0 0 1 .63-.335c.114.07.254.083.377.035a.402.402 0 0 0 .245-.28.81.81 0 0 1 .794-.62.81.81 0 0 1 .795.62c.03.126.12.23.244.28a.418.418 0 0 0 .376-.035c.266-.168.631.038.63.335 0 .22-.183.4-.408.4z"/>
        <path d="M248.885 935.8v-1.2h2.827c.222 0 .403-.18.403-.4v-.4h1.616v.4c0 .22.18.4.404.4h2.827v.8h-6.866a.402.402 0 0 0-.404.4c0 .22.181.4.404.4h10.096v16.592c0 .22.181.4.404.4.223 0 .404-.18.404-.4V935.8c0-.22-.18-.4-.404-.4h-2.827v-1.2c0-.22-.18-.4-.404-.4h-2.826v-.4c0-.22-.181-.4-.404-.4h-2.423a.402.402 0 0 0-.404.4v.4h-2.827a.402.402 0 0 0-.404.4v1.2h-2.827a.402.402 0 0 0-.404.4v20.4h-2.423v-1.64a2.008 2.008 0 0 0 1.615-1.96c0-.052-.023-5.2-2.019-5.2-1.996 0-2.019 5.148-2.019 5.2 0 .966.695 1.774 1.615 1.96v1.64h-1.211a.402.402 0 0 0-.404.4c0 .22.18.4.404.4h4.846c.223 0 .404-.18.404-.4v-20.4h2.827c.223 0 .404-.18.404-.4zm-8.077 16.8c0-1.993.54-4.4 1.211-4.4s1.212 2.407 1.212 4.4c0 .662-.544 1.2-1.212 1.2a1.207 1.207 0 0 1-1.211-1.2z"/>
    </g>
</svg>
