<svg xmlns="http://www.w3.org/2000/svg" width="19" height="24" viewBox="0 0 19 24">
    <defs>
        <linearGradient id="a" x1="12.863%" x2="70.533%" y1="90.417%" y2="-14.164%">
            <stop offset="0%" stop-color="#06038D"/>
            <stop offset="46.444%" stop-color="#AA2FAC"/>
            <stop offset="100%" stop-color="#7C3E98"/>
        </linearGradient>
    </defs>
    <g fill="url(#a)" fill-rule="nonzero" transform="translate(-615 -933)">
        <path d="M615.5 943a.5.5 0 1 0 .5.5v-.002a.499.499 0 0 0-.5-.498z"/>
        <path d="M631.648 933h-14.296a2.35 2.35 0 0 0-2.352 2.344v6.242a.47.47 0 0 0 .94 0v-6.242a1.41 1.41 0 0 1 1.412-1.407h14.296c.778 0 1.411.631 1.411 1.407v15.562a1.41 1.41 0 0 1-1.41 1.407h-14.297c-.53 0-1.018.175-1.411.47v-7.515a.47.47 0 0 0-.941 0v9.388a2.35 2.35 0 0 0 2.352 2.344h14.296a2.35 2.35 0 0 0 2.352-2.344v-19.312a2.35 2.35 0 0 0-2.352-2.344zm1.411 21.656a1.41 1.41 0 0 1-1.41 1.407h-14.297a1.41 1.41 0 0 1-1.411-1.407 1.41 1.41 0 0 1 1.41-1.406h14.297c.53 0 1.018-.175 1.411-.47a1.41 1.41 0 0 1-1.41 1.4h-11.93a.47.47 0 1 0 0 .937h11.93c.528 0 1.017-.175 1.41-.47v.01z"/>
        <path d="M618.853 954.146a.504.504 0 0 0-.707 0 .504.504 0 0 0 0 .708.504.504 0 0 0 .707 0 .504.504 0 0 0 0-.708zM629.605 944.69l-1.708-1.708a1.341 1.341 0 0 0-.955-.395c-.36 0-.7.14-.954.395l-.556.556a.215.215 0 0 1-.305 0l-1.666-1.666a.216.216 0 0 1 0-.305l.555-.556a1.351 1.351 0 0 0 0-1.91l-1.706-1.706a1.35 1.35 0 0 0-2.017.121l-.366.467a4.35 4.35 0 0 0 .345 5.759l2.986 2.986a4.34 4.34 0 0 0 3.076 1.272c.944 0 1.892-.306 2.683-.927l.467-.366a1.351 1.351 0 0 0 .12-2.017zm-.518.981a.432.432 0 0 1-.167.318l-.467.366a3.438 3.438 0 0 1-4.55-.273l-2.985-2.985a3.437 3.437 0 0 1-.273-4.55l.366-.467a.432.432 0 0 1 .318-.167.431.431 0 0 1 .335.128l1.707 1.706c.17.17.17.448 0 .619l-.556.555a1.13 1.13 0 0 0 0 1.596l1.667 1.666c.213.213.496.33.797.33.302 0 .585-.117.798-.33l.556-.555a.434.434 0 0 1 .618 0l1.708 1.708c.09.09.135.209.128.335z"/>
    </g>
</svg>
