<?xml version="1.0" encoding="UTF-8"?>
<svg width="18px" height="25px" viewBox="0 0 18 25" version="1.1" xmlns="http://www.w3.org/2000/svg" xmlns:xlink="http://www.w3.org/1999/xlink">
    <!-- Generator: Sketch 51.2 (57519) - http://www.bohemiancoding.com/sketch -->
    <title>Icon / icon-location 1</title>
    <desc>Created with Sketch.</desc>
    <defs>
        <path d="M10.1777778,1.77777778 C5.53377778,1.77777778 1.77777778,5.53377778 1.77777778,10.1777778 C1.77777778,16.4777778 10.1777778,25.7777778 10.1777778,25.7777778 C10.1777778,25.7777778 18.5777778,16.4777778 18.5777778,10.1777778 C18.5777778,5.53377778 14.8217778,1.77777778 10.1777778,1.77777778 Z M10.1777778,13.1777778 C8.52177778,13.1777778 7.17777778,11.8337778 7.17777778,10.1777778 C7.17777778,8.52177778 8.52177778,7.17777778 10.1777778,7.17777778 C11.8337778,7.17777778 13.1777778,8.52177778 13.1777778,10.1777778 C13.1777778,11.8337778 11.8337778,13.1777778 10.1777778,13.1777778 Z" id="path-1"></path>
        <rect id="path-3" x="0" y="0" width="27" height="27" rx="13.5"></rect>
        <filter x="-55.6%" y="-55.6%" width="211.1%" height="211.1%" filterUnits="objectBoundingBox" id="filter-4">
            <feOffset dx="0" dy="0" in="SourceAlpha" result="shadowOffsetOuter1"></feOffset>
            <feGaussianBlur stdDeviation="5" in="shadowOffsetOuter1" result="shadowBlurOuter1"></feGaussianBlur>
            <feColorMatrix values="0 0 0 0 0   0 0 0 0 0   0 0 0 0 0  0 0 0 0 0" type="matrix" in="shadowBlurOuter1"></feColorMatrix>
        </filter>
    </defs>
    <g id="Home" stroke="none" stroke-width="1" fill="none" fill-rule="evenodd">
        <g id="01b_GBM_Home_subnav_desktop" transform="translate(-251.000000, -1714.000000)">
            <g id="Solutions" transform="translate(86.000000, 960.000000)">
                <g id="Case-studies" transform="translate(132.000000, 536.000000)">
                    <g id="Case_Study" transform="translate(1.000000, 45.000000)">
                        <g id="Location" transform="translate(31.000000, 172.000000)">
                            <g id="Icon-/-icon-location-1">
                                <polygon id="Shape" points="0 0 21.3333333 0 21.3333333 24 0 24"></polygon>
                                <mask id="mask-2" fill="white">
                                    <use xlink:href="#path-1"></use>
                                </mask>
                                <g id="Shape" fill-rule="nonzero"></g>
                                <g id="↳-Color" mask="url(#mask-2)">
                                    <g transform="translate(-1.333333, 0.000000)" id="BG">
                                        <g>
                                            <use fill="black" fill-opacity="1" filter="url(#filter-4)" xlink:href="#path-3"></use>
                                            <use fill="#141B4D" fill-rule="evenodd" xlink:href="#path-3"></use>
                                        </g>
                                    </g>
                                </g>
                            </g>
                        </g>
                    </g>
                </g>
            </g>
        </g>
    </g>
</svg>