<?xml version="1.0" encoding="UTF-8"?>
<svg width="24px" height="24px" viewBox="0 0 24 24" version="1.1" xmlns="http://www.w3.org/2000/svg" xmlns:xlink="http://www.w3.org/1999/xlink">
    <!-- Generator: Sketch 51.2 (57519) - http://www.bohemiancoding.com/sketch -->
    <title>Icon</title>
    <desc>Created with Sketch.</desc>
    <defs></defs>
    <g id="Home" stroke="none" stroke-width="1" fill="none" fill-rule="evenodd">
        <g id="01b_GBM_Home_subnav_desktop" transform="translate(-376.000000, -1715.000000)">
            <g id="Solutions" transform="translate(86.000000, 960.000000)">
                <g id="Case-studies" transform="translate(132.000000, 536.000000)">
                    <g id="Case_Study" transform="translate(1.000000, 45.000000)">
                        <g id="Icon" transform="translate(157.000000, 174.000000)">
                            <circle id="Oval-2" fill="#141B4D" cx="12" cy="12" r="12"></circle>
                            <path d="M12.9233491,6 C12.5230166,6 12.1945755,6.33800738 12.1945755,6.75 C12.1945755,7.09747463 12.4278118,7.38687825 12.7411557,7.47070312 L12.7411557,9.375 L10.9192217,9.375 L10.9192217,7.6875 L10.9192217,7.5 L10.7370283,7.5 L8.52223983,7.5 C8.44078736,7.17752963 8.1595744,6.9375 7.82193396,6.9375 C7.42160151,6.9375 7.09316038,7.27550738 7.09316038,7.6875 C7.09316038,8.09949262 7.42160151,8.4375 7.82193396,8.4375 C8.1595744,8.4375 8.44078736,8.19747037 8.52223983,7.875 L10.5548349,7.875 L10.5548349,9.375 L9.46167453,9.375 L9.27948113,9.375 L9.27948113,9.5625 L9.27948113,10.6875 L7.42907945,10.6875 C7.34762698,10.3650296 7.06641402,10.125 6.72877358,10.125 C6.32844113,10.125 6,10.4630074 6,10.875 C6,11.2869926 6.32844113,11.625 6.72877358,11.625 C7.06641402,11.625 7.34762698,11.3849704 7.42907945,11.0625 L9.27948113,11.0625 L9.27948113,12.9375 L7.63974057,12.9375 L7.45754717,12.9375 L7.45754717,13.125 L7.45754717,15.4042969 C7.14420331,15.4881218 6.91096698,15.7775254 6.91096698,16.125 C6.91096698,16.5369926 7.23940811,16.875 7.63974057,16.875 C8.04007302,16.875 8.36851415,16.5369926 8.36851415,16.125 C8.36851415,15.7775254 8.13527782,15.4881218 7.82193396,15.4042969 L7.82193396,13.3125 L9.27948113,13.3125 L9.27948113,14.4375 L9.27948113,14.625 L9.46167453,14.625 L10.5548349,14.625 L10.5548349,16.5292969 C10.2414911,16.6131218 10.0082547,16.9025254 10.0082547,17.25 C10.0082547,17.6619926 10.3366958,18 10.7370283,18 C11.1373608,18 11.4658019,17.6619926 11.4658019,17.25 C11.4658019,16.9025254 11.2325656,16.6131218 10.9192217,16.5292969 L10.9192217,14.625 L12.7411557,14.625 L12.7411557,16.3125 L12.7411557,16.5 L12.9233491,16.5 L15.1381375,16.5 C15.21959,16.8224704 15.500803,17.0625 15.8384434,17.0625 C16.2387759,17.0625 16.567217,16.7244926 16.567217,16.3125 C16.567217,15.9005074 16.2387759,15.5625 15.8384434,15.5625 C15.500803,15.5625 15.21959,15.8025296 15.1381375,16.125 L13.1055425,16.125 L13.1055425,14.625 L14.1987028,14.625 L14.3808962,14.625 L14.3808962,14.4375 L14.3808962,13.3125 L16.2312979,13.3125 C16.3127504,13.6349704 16.5939633,13.875 16.9316038,13.875 C17.3319362,13.875 17.6603774,13.5369926 17.6603774,13.125 C17.6603774,12.7130074 17.3319362,12.375 16.9316038,12.375 C16.5939633,12.375 16.3127504,12.6150296 16.2312979,12.9375 L14.3808962,12.9375 L14.3808962,11.0625 L16.0206368,11.0625 L16.2028302,11.0625 L16.2028302,10.875 L16.2028302,8.59570312 C16.516174,8.51187825 16.7494104,8.22247463 16.7494104,7.875 C16.7494104,7.46300738 16.4209692,7.125 16.0206368,7.125 C15.6203043,7.125 15.2918632,7.46300738 15.2918632,7.875 C15.2918632,8.22247463 15.5250995,8.51187825 15.8384434,8.59570312 L15.8384434,10.6875 L14.3808962,10.6875 L14.3808962,9.5625 L14.3808962,9.375 L14.1987028,9.375 L13.1055425,9.375 L13.1055425,7.47070312 C13.4188863,7.38687825 13.6521226,7.09747463 13.6521226,6.75 C13.6521226,6.33800738 13.3236815,6 12.9233491,6 Z M12.9233491,6.375 C13.1267523,6.375 13.2877358,6.54067237 13.2877358,6.75 C13.2877358,6.95932763 13.1267523,7.125 12.9233491,7.125 C12.7199458,7.125 12.5589623,6.95932763 12.5589623,6.75 C12.5589623,6.54067237 12.7199458,6.375 12.9233491,6.375 Z M7.82193396,7.3125 C8.02533722,7.3125 8.18632075,7.47817237 8.18632075,7.6875 C8.18632075,7.89682763 8.02533722,8.0625 7.82193396,8.0625 C7.6185307,8.0625 7.45754717,7.89682763 7.45754717,7.6875 C7.45754717,7.47817237 7.6185307,7.3125 7.82193396,7.3125 Z M16.0206368,7.5 C16.2240401,7.5 16.3850236,7.66567237 16.3850236,7.875 C16.3850236,8.08432763 16.2240401,8.25 16.0206368,8.25 C15.8172335,8.25 15.65625,8.08432763 15.65625,7.875 C15.65625,7.66567237 15.8172335,7.5 16.0206368,7.5 Z M9.64386792,9.75 L14.0165094,9.75 L14.0165094,14.25 L9.64386792,14.25 L9.64386792,9.75 Z M6.72877358,10.5 C6.93217684,10.5 7.09316038,10.6656724 7.09316038,10.875 C7.09316038,11.0843276 6.93217684,11.25 6.72877358,11.25 C6.52537033,11.25 6.36438679,11.0843276 6.36438679,10.875 C6.36438679,10.6656724 6.52537033,10.5 6.72877358,10.5 Z M16.9316038,12.75 C17.135007,12.75 17.2959906,12.9156724 17.2959906,13.125 C17.2959906,13.3343276 17.135007,13.5 16.9316038,13.5 C16.7282005,13.5 16.567217,13.3343276 16.567217,13.125 C16.567217,12.9156724 16.7282005,12.75 16.9316038,12.75 Z M7.63974057,15.75 C7.84314382,15.75 8.00412736,15.9156724 8.00412736,16.125 C8.00412736,16.3343276 7.84314382,16.5 7.63974057,16.5 C7.43633731,16.5 7.27535377,16.3343276 7.27535377,16.125 C7.27535377,15.9156724 7.43633731,15.75 7.63974057,15.75 Z M15.8384434,15.9375 C16.0418467,15.9375 16.2028302,16.1031724 16.2028302,16.3125 C16.2028302,16.5218276 16.0418467,16.6875 15.8384434,16.6875 C15.6350401,16.6875 15.4740566,16.5218276 15.4740566,16.3125 C15.4740566,16.1031724 15.6350401,15.9375 15.8384434,15.9375 Z M10.7370283,16.875 C10.9404316,16.875 11.1014151,17.0406724 11.1014151,17.25 C11.1014151,17.4593276 10.9404316,17.625 10.7370283,17.625 C10.533625,17.625 10.3726415,17.4593276 10.3726415,17.25 C10.3726415,17.0406724 10.533625,16.875 10.7370283,16.875 Z" id="Shape" fill="#FFFFFF" fill-rule="nonzero"></path>
                        </g>
                    </g>
                </g>
            </g>
        </g>
    </g>
</svg>